<svg width="83" height="101" viewBox="0 0 83 101" fill="none" xmlns="http://www.w3.org/2000/svg">
<path fill-rule="evenodd" clip-rule="evenodd" d="M21.2275 18.5469C20.5041 19.2392 19.5084 19.5426 18.5283 19.7371C17.832 19.8732 17.1241 19.9781 16.3735 19.8109C15.6656 19.7214 14.9733 19.4025 14.5494 18.8307C13.9621 18.0607 13.9777 16.9755 14.3549 16.1004C14.7167 15.2253 15.3973 14.5174 16.1051 13.8679C16.6497 13.3701 17.2525 12.8878 17.8865 12.4211C17.7659 12.2538 17.6453 12.071 17.5559 11.8766C17.2525 11.2737 17.0736 10.6125 17.0581 9.94745C17.0477 9.85729 17.0511 9.77395 17.0545 9.6884L17.0545 9.68828C17.0563 9.6447 17.0581 9.60055 17.0581 9.55463C16.004 9.1463 15.2495 8.11946 15.2495 6.9138C15.2495 5.36194 16.5175 4.09405 18.0849 4.09405C18.9445 4.09405 19.7301 4.48687 20.2435 5.08973C20.2513 5.08973 20.2591 5.08584 20.2668 5.08195C20.2746 5.07806 20.2824 5.07417 20.2902 5.07417C21.0331 4.77469 21.7565 4.6969 22.3438 4.74358C22.9466 4.8058 23.4133 4.96915 23.7906 5.1364C24.4245 5.45532 24.7551 5.78592 24.9379 6.02706C25.389 5.01585 25.8869 4.03572 26.4469 3.16061C26.9603 2.35939 27.532 1.56211 28.3332 1.03316C29.1306 0.504206 30.1885 0.305849 31.048 0.729787C31.682 1.04482 32.1215 1.66324 32.3471 2.34387C32.5727 3.02451 32.6038 3.74793 32.5882 4.4558C32.5727 5.45147 32.4677 6.49381 31.9076 7.32224C31.472 7.98729 30.7914 8.45401 30.0835 8.83128C29.3602 9.22021 28.6056 9.52359 27.82 9.76473L27.8348 9.79909C27.8538 9.84379 27.8688 9.87884 27.8939 9.91641C28.0922 10.3248 28.2711 10.7604 28.4072 11.2583C28.4695 11.515 28.5278 11.7717 28.5589 12.0439C28.6056 12.3162 28.6212 12.6001 28.59 12.9035C28.5628 13.2068 28.5161 13.5102 28.38 13.8252C28.2594 14.1403 28.065 14.4436 27.8083 14.6848C27.3104 15.1826 26.6454 15.4393 26.0114 15.5599C25.3773 15.6844 24.7434 15.6844 24.1095 15.6221C23.6272 15.5755 23.1449 15.5016 22.6782 15.381L22.678 15.3819C22.5847 15.7589 22.4953 16.1203 22.3748 16.4817C22.1337 17.2362 21.7992 17.9869 21.2275 18.5469ZM23.355 6.16366C23.0673 6.10716 22.725 6.03995 22.3282 6.05451C21.9082 6.07007 21.4261 6.17507 20.9321 6.40065C20.4187 6.6418 19.8898 7.06571 19.4386 7.653C18.9991 8.24025 18.653 9.02591 18.6841 9.91657C18.6996 10.3561 18.8046 10.7917 19.0147 11.2156C19.1663 11.5501 19.3919 11.8496 19.6642 12.1374C19.6331 11.803 19.6486 11.3518 19.7536 10.8695C19.8587 10.2939 20.0998 9.6599 20.4615 9.07262C20.8076 8.4814 21.2899 7.94079 21.7877 7.53241C22.2855 7.12402 22.7367 6.88288 23.114 6.7312C23.4757 6.59896 23.7791 6.53673 23.9891 6.53673C24.4286 6.53673 24.5608 6.71954 24.6231 6.91401C24.6814 7.12793 24.6386 7.33794 24.3664 7.57908C24.2385 7.69964 24.0549 7.82361 23.8131 7.98686L23.8131 7.98687C23.54 8.17127 23.1928 8.40577 22.7678 8.74203C22.375 9.07647 21.9822 9.45374 21.636 9.88935C21.2899 10.3094 21.0021 10.7956 20.7765 11.2312C20.6097 11.5647 20.4795 11.8761 20.37 12.1379L20.37 12.138L20.3699 12.138C20.2905 12.3281 20.2219 12.4921 20.1581 12.6197C20.4576 12.8608 20.8076 13.0709 21.1265 13.2459C21.6087 13.5026 22.1221 13.7126 22.6511 13.8798C23.1761 14.0471 23.7051 14.1676 24.234 14.2415C24.7629 14.3038 25.2763 14.331 25.7586 14.2571C26.0892 14.226 26.3926 14.1365 26.6337 14.0004C26.4976 13.9693 26.3498 13.9071 26.1825 13.8176C25.8364 13.6231 25.4591 13.3042 25.2024 12.9892C24.9457 12.6742 24.8563 12.433 24.8718 12.2658C24.8718 12.0985 24.9768 11.9935 25.113 11.9041C25.3852 11.7213 25.6575 11.694 26.1086 12.2658C26.3498 12.5497 26.5909 12.9153 26.7737 13.2303C26.8787 13.4287 26.9682 13.6231 26.9838 13.7593C27.256 13.5181 27.4038 13.172 27.466 12.7636C27.4972 12.5497 27.5127 12.3241 27.4972 12.1141C27.4972 11.9002 27.4699 11.6746 27.4233 11.4646C27.3494 11.0445 27.2132 10.6205 27.0771 10.2433C26.7932 9.48875 26.4587 8.82757 26.1437 8.29862C25.8471 7.78579 25.5783 7.39367 25.387 7.11454C25.1854 6.82044 25.0697 6.65178 25.0983 6.59955C25.0384 6.68507 24.9025 6.69864 24.6501 6.61068C24.5516 6.58231 24.4352 6.53616 24.2952 6.48061L24.2951 6.4806C24.0704 6.39146 23.7847 6.2781 23.4133 6.17507L23.355 6.16366ZM59.5298 19.5278C59.8798 18.8472 60.1482 18.8472 60.4515 18.9833C60.7084 19.1048 60.8909 19.3006 60.6702 19.8664C64.4015 20.5458 67.1717 21.58 67.8759 22.9606C68.8132 24.7886 69.4161 27.6239 69.7622 31.0777C69.8148 31.101 69.8711 31.1234 69.9276 31.1457C69.9839 31.1681 70.0403 31.1905 70.0928 31.2138C72.7648 32.3144 74.8611 33.8974 76.203 35.6476C76.8681 36.5227 77.3659 37.429 77.6965 38.3041C78.0271 39.1792 78.2099 40.0232 78.2993 40.7933C78.3927 41.5634 78.3927 42.2713 78.346 42.8897C78.346 42.9266 78.3421 42.9645 78.3382 43.0024C78.3343 43.0404 78.3305 43.0783 78.3305 43.1152C78.3227 43.1522 78.3188 43.1901 78.3149 43.228C78.311 43.2659 78.3071 43.3039 78.2993 43.3408C78.2916 43.4089 78.2838 43.4808 78.276 43.5528C78.2682 43.6247 78.2605 43.6967 78.2527 43.7648L78.2306 43.8938C78.1923 44.1185 78.1558 44.3321 78.1165 44.5348C77.9026 45.5033 77.6459 46.1956 77.4359 46.709C77.3309 46.9657 77.2375 47.1757 77.1481 47.343C77.0586 47.5102 76.9847 47.6463 76.9225 47.7358C76.7864 47.9147 76.7125 47.9769 76.6503 47.9614C76.6036 47.9458 76.5725 47.8408 76.6036 47.6152C76.6153 47.4946 76.6308 47.3624 76.6775 47.1796C76.7086 46.9968 76.7514 46.7712 76.8136 46.5145C76.8389 46.3693 76.8704 46.2098 76.905 46.0348L76.9051 46.0346C76.9927 45.591 77.1 45.048 77.1753 44.3871L77.1785 44.3404V44.3402C77.1931 44.1282 77.2086 43.9027 77.2375 43.6637C77.2375 43.6052 77.2412 43.5431 77.245 43.4791C77.249 43.4111 77.2531 43.341 77.2531 43.2708C77.2687 43.1969 77.2687 43.1347 77.2687 43.0608V42.8508C77.2687 42.2752 77.2376 41.6451 77.117 40.9645C76.9964 40.2683 76.7981 39.5449 76.483 38.7903C76.1641 38.0357 75.6974 37.2657 75.0946 36.5111C73.8733 35.0021 71.987 33.6291 69.4978 32.649C67.0202 31.6689 63.9593 31.0661 60.4745 31.0039C58.7359 30.9883 56.8807 31.0933 54.9361 31.3811C53.9714 31.5289 52.9758 31.7117 51.9646 31.9529C51.7899 31.9903 51.6345 32.0341 51.4818 32.0771L51.4817 32.0772C51.3964 32.1012 51.312 32.125 51.2256 32.1473C50.9844 32.2212 50.7433 32.299 50.5022 32.3885C50.0199 32.5713 49.5376 32.7657 49.0554 33.0069C46.64 34.1852 44.3765 35.9511 42.4162 38.0163C40.4716 40.0972 38.7681 42.528 37.7257 45.2116C37.2123 46.5574 36.8661 47.9575 36.8195 49.3616C36.7728 50.7657 37.045 52.1542 37.6479 53.391C38.2508 54.6317 39.1881 55.6857 40.3044 56.5608C40.8644 57.0004 41.4673 57.3776 42.0857 57.7238C42.7197 58.0738 43.3653 58.3733 44.0304 58.6455H44.0459C44.2871 58.7505 44.4504 58.9761 44.4815 59.2328C44.6449 60.454 44.9327 61.6909 45.2944 62.8693C45.3392 62.9878 45.3781 63.1082 45.4168 63.2278C45.472 63.399 45.5268 63.5687 45.5978 63.7289L45.765 64.1528L45.9478 64.5456C46.2045 65.059 46.5234 65.5413 46.854 65.798C47.0213 65.9186 47.1574 65.9652 47.2469 65.9497C47.2774 65.9497 47.3063 65.9363 47.3357 65.9228L47.3358 65.9227C47.3513 65.9156 47.3669 65.9084 47.383 65.903C47.3908 65.8874 47.4024 65.8797 47.4141 65.8719C47.4258 65.8641 47.4374 65.8563 47.4452 65.8408C47.4608 65.7941 47.4919 65.6891 47.5074 65.5841C47.5357 65.4605 47.5511 65.3241 47.5654 65.1981L47.5697 65.1601L47.582 65.0316L47.582 65.0313C47.6058 64.7834 47.6303 64.5279 47.6436 64.2695C47.6484 64.2037 47.6531 64.1379 47.6579 64.0721C47.6674 63.9391 47.6769 63.8061 47.6863 63.6732L47.6863 63.6731C47.7591 62.6482 47.8316 61.6273 47.9586 60.6174V60.6018C48.0014 60.2362 48.3203 59.9951 48.6665 60.0417C48.682 60.0573 48.6976 60.0573 48.7131 60.0573C49.8566 60.3023 51.004 60.4812 52.1358 60.6174C52.6958 60.6796 53.252 60.7379 53.8121 60.7846C54.3565 60.8157 54.9127 60.8468 55.4572 60.8468C57.643 60.8624 59.7433 60.6329 61.6724 60.1973C63.621 59.7578 65.3984 59.1122 66.9542 58.3265C68.5255 57.5293 69.8673 56.5919 70.9836 55.6274C71.5436 55.145 72.057 54.6472 72.5082 54.1649C72.9437 53.6826 73.3677 53.2004 73.7138 52.7336C74.4411 51.7963 74.9662 50.9368 75.3901 50.2289C75.7702 49.561 76.0518 49.0212 76.2516 48.638C76.4812 48.1978 76.603 47.9643 76.6425 47.9809C76.6697 47.9964 76.6114 48.2065 76.4752 48.6304C76.3236 49.0544 76.0824 49.6572 75.7207 50.4118C75.3551 51.1663 74.8573 52.0725 74.165 53.0682C73.8305 53.5661 73.4221 54.0795 72.9865 54.6084C72.5353 55.1334 72.0375 55.6624 71.4775 56.1913C70.7074 56.8992 69.8323 57.6071 68.8366 58.2566C67.7632 66.6884 66.1219 73.7632 64.4611 75.7545C61.038 79.8734 30.6077 78.8311 27.683 74.5022C26.8662 73.2964 26.7767 63.4761 27.259 52.6133C27.2512 52.6211 27.2396 52.6289 27.2279 52.6366C27.2162 52.6444 27.2046 52.6522 27.1968 52.66C26.7456 52.9439 26.3372 53.3211 26.0805 53.7295C25.96 53.9396 25.8705 54.1535 25.8083 54.3635C25.746 54.5774 25.7305 54.7874 25.7616 55.0286C25.8002 55.4502 25.9658 55.8971 26.1408 56.3694L26.1972 56.5221L26.2462 56.654C26.3262 56.8688 26.4109 57.0966 26.485 57.335C26.5745 57.6228 26.6484 57.9067 26.695 58.1945C26.9051 59.3418 26.8428 60.4581 26.6484 61.4537C26.45 62.4494 26.135 63.3517 25.7577 64.1529C25.3805 64.9502 24.976 65.6465 24.5521 66.2493C23.7197 67.4588 22.8757 68.2873 22.2729 68.8007C21.6545 69.3141 21.2772 69.528 21.2461 69.4814C21.2157 69.4482 21.3658 69.2856 21.6393 68.9893L21.6396 68.989C21.7511 68.8682 21.8831 68.7251 22.0318 68.5596C22.5452 67.9839 23.2842 67.1088 23.992 65.9031C24.3382 65.3003 24.6999 64.608 25.0033 63.8379C25.3027 63.0678 25.5594 62.2083 25.6956 61.2865C25.8317 60.3648 25.8317 59.3846 25.6217 58.4045C25.5166 57.9066 25.3494 57.471 25.1238 56.9421C25.094 56.8668 25.0631 56.791 25.032 56.7142C24.8439 56.2511 24.6422 55.7545 24.5521 55.1607C24.5093 54.8146 24.5093 54.4373 24.5832 54.0756C24.661 53.7139 24.8088 53.3794 24.9916 53.0644C25.3688 52.446 25.8783 51.9482 26.4384 51.5554C27.2019 51.018 28.0436 50.6589 28.8466 50.3164C29.2176 50.1581 29.5803 50.0034 29.9233 49.8362C30.4678 49.5834 30.9656 49.2645 31.3274 48.9028C31.6891 48.5255 31.8407 48.1366 31.7785 47.7127C31.7202 47.2887 31.4324 46.8064 31.0395 46.3553C30.8412 46.1258 30.6156 45.9002 30.39 45.6902L30.0283 45.3751L29.651 45.0445C28.6709 44.1694 27.6597 43.3682 26.559 42.9171C26.0028 42.6759 25.4272 42.5398 24.8555 42.4931C24.2798 42.462 23.7392 42.5359 23.1947 42.7187C22.6502 42.9171 22.1096 43.1893 21.5651 43.5199C21.0206 43.8544 20.4644 44.2005 19.9199 44.5467C18.8464 45.2391 17.8352 45.9508 17.0223 46.7636C15.7054 48.0249 15.1575 49.6277 14.6171 51.2088L14.6171 51.2089C14.4776 51.617 14.3385 52.0237 14.1869 52.4227C13.8252 53.3911 13.4324 54.2818 13.0552 55.0946C12.6779 55.9114 12.3006 56.6659 11.9389 57.3582C10.4765 60.1508 9.25522 62.0799 8.349 63.4684C7.43109 64.8413 6.7971 65.658 6.38872 66.1092L6.34205 66.1559C7.1588 66.8326 8.00282 67.4977 8.87793 68.085C10.282 69.0185 11.76 69.8352 13.2846 70.5431C14.8093 71.2509 16.3805 71.8265 17.9479 72.3088C18.7336 72.55 19.5153 72.7639 20.3165 72.9739C20.4385 73.001 20.5565 73.032 20.6721 73.0624C20.7556 73.0844 20.8378 73.106 20.9194 73.1256C21.1294 73.1723 21.3277 73.2306 21.5378 73.2928C21.5639 73.2996 21.5891 73.3056 21.614 73.3116L21.6148 73.3118C21.6897 73.3298 21.7626 73.3473 21.8528 73.3823L22.2145 73.5184C22.2964 73.558 22.3855 73.6048 22.4719 73.6502L22.4721 73.6503L22.4735 73.6511C22.5138 73.6722 22.5536 73.6932 22.5918 73.7129C22.628 73.7397 22.6642 73.7655 22.7004 73.7914C22.7848 73.8515 22.8692 73.9117 22.9535 73.9851C23.3152 74.304 23.603 74.7708 23.6925 75.2375C23.7547 75.467 23.7703 75.6925 23.7547 75.9181C23.7547 76.0231 23.7392 76.1282 23.7236 76.2332C23.7158 76.2643 23.7119 76.2905 23.708 76.3168C23.7042 76.343 23.7003 76.3693 23.6925 76.4004L23.6769 76.4471C23.6614 76.7038 23.6769 76.9916 23.6925 77.2327C23.708 77.3689 23.7236 77.505 23.7392 77.6255C23.7474 77.6619 23.7545 77.6982 23.7613 77.733C23.7772 77.8135 23.7913 77.8855 23.8131 77.9289C23.8286 77.9445 23.8286 77.96 23.8286 77.96V77.9756L23.8753 78.0223L24.0114 78.1428L24.1787 78.279C24.4198 78.4773 24.692 78.7029 24.9332 78.9596C25.1743 79.2163 25.4155 79.5197 25.5983 79.8658C25.7927 80.2119 25.8978 80.6203 25.9444 81.0131C25.96 81.2076 25.9755 81.4176 25.9444 81.6004C25.9364 81.6486 25.9325 81.6958 25.9285 81.7446C25.9247 81.7903 25.9208 81.8374 25.9133 81.8882C25.9003 81.9328 25.89 81.98 25.8793 82.0287C25.8677 82.0819 25.8557 82.1367 25.8394 82.1916C25.7772 82.4016 25.6722 82.5961 25.5672 82.7789C25.4466 82.9578 25.326 83.125 25.1743 83.2612C24.8865 83.549 24.587 83.7279 24.2837 83.8796C23.9959 84.0157 23.6964 84.1207 23.4241 84.2102L23.3917 84.2202L23.3916 84.2202C23.2529 84.2629 23.1265 84.3019 23.0002 84.3307C22.982 84.3307 22.9691 84.3361 22.9584 84.3405C22.9508 84.3436 22.9444 84.3463 22.938 84.3463C22.9224 84.3541 22.9039 84.358 22.8854 84.3619C22.867 84.3657 22.8485 84.3696 22.8329 84.3774C22.8563 84.3852 22.8786 84.3891 22.901 84.393C22.9234 84.3969 22.9457 84.4007 22.9691 84.4085C22.9822 84.4085 22.9963 84.4122 23.0108 84.4159C23.0264 84.4199 23.0425 84.4241 23.0585 84.4241H23.0896L23.1363 84.4085C23.1597 84.4007 23.1859 84.393 23.2122 84.3852C23.2384 84.3774 23.2647 84.3696 23.288 84.3618C23.3483 84.3463 23.4086 84.3278 23.4689 84.3093C23.5291 84.2909 23.5894 84.2724 23.6497 84.2568C23.9064 84.1829 24.1903 84.109 24.4781 84.0468C24.7776 84.0001 25.0965 83.9535 25.4427 83.9846C25.5321 83.9846 25.6099 83.9846 25.6994 84.0001L25.9561 84.0468C26.1035 84.0605 26.2599 84.1195 26.4094 84.1759L26.4695 84.1985C26.5434 84.2296 26.6367 84.2724 26.7106 84.3191L26.9518 84.4552C27.0494 84.5228 27.1407 84.5969 27.2296 84.6691L27.2297 84.6692C27.2789 84.7091 27.3273 84.7484 27.3757 84.7858C27.4579 84.8586 27.5287 84.937 27.5985 85.0143L27.5986 85.0144C27.6444 85.0651 27.6897 85.1153 27.7374 85.163C27.7819 85.2048 27.8165 85.2546 27.8497 85.3023C27.8569 85.3127 27.8641 85.3229 27.8712 85.333C27.8772 85.3413 27.8831 85.3495 27.8891 85.3575L28.0252 85.5675C28.4025 86.0926 28.6592 86.7888 28.6903 87.5122C28.7214 88.2551 28.523 88.9629 28.1925 89.5658C28.0291 89.8652 27.8307 90.1531 27.6207 90.4098L27.5896 90.4409L27.6207 90.472C28.4958 91.1487 29.4915 91.526 30.4133 91.2849C30.8296 91.1942 31.1676 90.9906 31.66 90.6939C31.7073 90.6654 31.756 90.6361 31.8064 90.6059C31.8392 90.5862 31.8726 90.5662 31.9068 90.5459C32.494 90.2114 33.0969 89.9119 33.7153 89.6397C34.3337 89.3674 34.9794 89.1418 35.66 88.959C36.3367 88.7801 37.033 88.6596 37.7564 88.6129C39.1915 88.5079 40.7162 88.7957 42.0269 89.5347C42.6765 89.8964 43.2482 90.3515 43.7616 90.8182C44.1294 91.1526 44.4733 91.503 44.8104 91.8464C44.9438 91.9823 45.0761 92.1171 45.2084 92.2495L45.266 92.3066L45.266 92.3066C45.716 92.753 46.1499 93.1834 46.6125 93.5602L46.9742 93.848C47.0093 93.874 47.0445 93.9018 47.08 93.9298C47.1664 93.9979 47.255 94.0679 47.3515 94.1202L47.7443 94.3614L47.9388 94.4819C47.9757 94.4975 48.0097 94.516 48.0438 94.5344C48.0778 94.5529 48.1118 94.5714 48.1488 94.587C50.3229 95.7654 52.9482 96.1582 55.3907 95.7343C55.873 95.6604 56.3553 95.5398 56.822 95.3881C56.577 95.147 56.3514 94.8903 56.1414 94.6336C56.0519 94.5286 55.9586 94.408 55.8691 94.2874L55.6124 93.9257L55.3713 93.5484L55.2507 93.354L55.1457 93.1595C55.0718 93.0389 54.994 92.9028 54.9201 92.7667C54.861 92.6578 54.8118 92.5489 54.7627 92.44L54.7257 92.3583C54.5895 92.086 54.4845 91.8021 54.3795 91.5143C54.1811 90.9271 54.0178 90.3242 53.9556 89.6902L53.9244 89.4491C53.9089 89.3752 53.9089 89.2818 53.9089 89.2079C53.9089 89.1243 53.905 89.0456 53.9011 88.9668L53.9011 88.9666C53.8972 88.8879 53.8933 88.8092 53.8933 88.7257C53.9011 88.6421 53.905 88.5635 53.9089 88.4848L53.9089 88.4845L53.9089 88.4843C53.9128 88.4056 53.9167 88.3269 53.9244 88.2434C53.9244 88.1695 53.9244 88.0761 53.94 88.0022L53.9711 87.7611C54.1384 86.4659 54.6829 85.1824 55.6319 84.1712C56.1142 83.6578 56.7015 83.2378 57.3821 82.9655C57.7166 82.845 58.0783 82.74 58.44 82.6933C58.8017 82.6622 59.1634 82.6466 59.5251 82.6933C59.6517 82.7041 59.7765 82.7279 59.902 82.7519C59.9577 82.7625 60.0134 82.7732 60.0696 82.7827L60.132 82.7986L60.1321 82.7986C60.2931 82.8394 60.4504 82.8793 60.5985 82.9344C60.9447 83.055 61.2636 83.2028 61.5787 83.3856C61.8937 83.5528 62.1815 83.7784 62.4538 84.0195C62.726 84.2607 62.9672 84.5291 63.1928 84.8324C64.0523 86.042 64.3985 87.5355 64.2935 88.9668C64.2468 89.6902 64.0679 90.4136 63.8112 91.0787C63.5389 91.7593 63.1928 92.3932 62.7688 92.965C61.9249 94.124 60.8514 95.0614 59.6302 95.8004C59.5699 95.8373 59.5057 95.8713 59.4415 95.9054C59.3774 95.9394 59.3132 95.9734 59.2529 96.0104C59.2607 96.0104 59.2646 96.0143 59.2684 96.0182C59.2723 96.0221 59.2762 96.0259 59.284 96.0259C60.1319 96.6015 61.0342 97.0527 61.956 97.4144C62.8778 97.7761 63.8112 98.0484 64.733 98.2428C66.5883 98.6357 68.3813 98.8029 70.0576 98.8924C71.7339 98.9857 73.3013 98.9857 74.7054 98.9235C76.125 98.8613 77.3929 98.7562 78.4936 98.6357C79.5942 98.5151 80.5122 98.3012 81.1928 97.9862C81.539 97.8345 81.8112 97.6556 82.0368 97.4728C82.0893 97.428 82.1389 97.3784 82.1865 97.3308C82.2342 97.2832 82.2799 97.2375 82.3246 97.2005C82.331 97.1928 82.3374 97.185 82.3437 97.1773C82.3695 97.1459 82.3952 97.1142 82.4202 97.0834C82.4607 97.0334 82.4995 96.9855 82.5346 96.9438C82.5733 96.8979 82.6045 96.8519 82.6338 96.8088L82.6338 96.8087C82.6516 96.7825 82.6687 96.7573 82.6863 96.7338C82.7135 96.6716 82.7447 96.6132 82.7758 96.5665C82.7895 96.5491 82.8018 96.5332 82.8127 96.519C82.8479 96.4732 82.8689 96.446 82.8808 96.446V96.4461C82.8808 96.4617 82.8808 96.5044 82.9235 96.5898L82.9199 96.6032C82.9055 96.6577 82.89 96.716 82.8613 96.7843C82.8301 96.8582 82.7874 96.9515 82.7407 97.041L82.7014 97.1044L82.7013 97.1046C82.6542 97.1808 82.6038 97.2626 82.5462 97.3444C82.506 97.383 82.4693 97.4273 82.431 97.4737C82.3804 97.5349 82.327 97.5997 82.2584 97.6594C82.0484 97.885 81.745 98.0989 81.3989 98.2934C80.6871 98.6706 79.7381 98.9546 78.6218 99.1218C77.5056 99.2852 76.2377 99.4524 74.8064 99.5574C73.3907 99.6624 71.8038 99.7246 70.1003 99.678C68.3968 99.6313 66.5376 99.5263 64.6085 99.149C63.644 98.9662 62.6639 98.7095 61.6682 98.3478C60.6725 97.9706 59.6885 97.5039 58.7551 96.901C58.5567 96.7804 58.3778 96.6599 58.195 96.5237C57.3977 96.8543 56.5653 97.0955 55.7214 97.2472C52.9327 97.7606 49.9613 97.3367 47.4254 95.9793C47.3515 95.9482 47.2582 95.9054 47.1843 95.8587L46.9587 95.7226L46.5075 95.4348C46.4199 95.3817 46.3363 95.3177 46.2512 95.2525L46.2511 95.2524L46.2509 95.2523C46.1926 95.2076 46.1335 95.1624 46.0719 95.1197L45.648 94.7891C45.204 94.4284 44.8089 94.0408 44.424 93.6631C44.3233 93.5643 44.2234 93.4662 44.1234 93.3695L44.0532 93.2981C43.1451 92.3746 42.2738 91.4885 41.288 90.9425C40.2768 90.3864 39.1177 90.1608 37.9393 90.2502C37.352 90.2813 36.7608 90.3864 36.1735 90.5536C35.5862 90.7053 35.0145 90.8998 34.4544 91.1565C33.8943 91.3976 33.3537 91.6815 32.8248 91.9849C32.7108 92.0484 32.6051 92.1118 32.4941 92.1784L32.494 92.1785L32.494 92.1785C32.3398 92.2711 32.1755 92.3697 31.9652 92.4827C31.84 92.5497 31.6994 92.6102 31.5665 92.6674L31.5663 92.6675C31.5218 92.6866 31.4782 92.7054 31.4363 92.7239C31.2535 92.8017 31.0707 92.86 30.8762 92.9067L30.8231 92.9184C30.6458 92.9577 30.4657 92.9975 30.2889 93.0117C30.143 93.035 29.9949 93.0321 29.8479 93.0292H29.8477H29.8474C29.7986 93.0282 29.75 93.0272 29.7016 93.0272C29.3089 93 28.916 92.9378 28.5543 92.8172C27.8153 92.5917 27.1969 92.2144 26.6524 91.7905C26.4238 91.6183 26.211 91.4279 26.009 91.2472C25.9463 91.1911 25.8847 91.136 25.824 91.0826C25.4739 90.7637 25.4622 90.2347 25.7773 89.9041L26.1001 89.5813C26.1896 89.4918 26.2673 89.3985 26.3412 89.3091C26.4929 89.1301 26.6291 88.9318 26.7341 88.7373C26.948 88.3445 27.053 87.9361 27.0374 87.5588C27.0063 87.1815 26.8858 86.8043 26.6446 86.4581C26.419 86.0964 26.1623 85.8553 25.859 85.7347C25.5712 85.6258 25.2095 85.5986 24.8011 85.6725L24.7388 85.6871C24.5589 85.7291 24.3692 85.7735 24.1671 85.8397C24.1068 85.8553 24.0465 85.8737 23.9863 85.8922C23.926 85.9107 23.8657 85.9292 23.8054 85.9447C23.7684 85.9525 23.7344 85.9642 23.7004 85.9758C23.6663 85.9875 23.6323 85.9992 23.5954 86.007L23.4592 86.0381C23.424 86.0498 23.4065 86.0527 23.3616 86.0601C23.347 86.0625 23.3295 86.0654 23.3076 86.0692C23.2492 86.0847 23.1714 86.0847 23.0975 86.0847H23.0081H22.9342C22.8607 86.0739 22.8005 86.063 22.7403 86.0521C22.7145 86.0474 22.6888 86.0427 22.6619 86.0381C22.4947 86.007 22.3313 85.9642 22.1796 85.9019C21.8763 85.7814 21.5923 85.6297 21.3045 85.3886C21.1528 85.268 21.0012 85.1163 20.8806 84.8907C20.8681 84.8623 20.8549 84.8371 20.8412 84.811C20.8249 84.7801 20.808 84.748 20.7911 84.7079C20.785 84.6851 20.7766 84.6593 20.7676 84.6319C20.7536 84.5893 20.7384 84.5429 20.7289 84.4979C20.6978 84.3462 20.6822 84.1829 20.7133 84.0312C20.7133 83.9845 20.7133 83.9573 20.7289 83.9106C20.7289 83.8951 20.7289 83.8795 20.7367 83.7706C20.7367 83.7434 20.7522 83.7122 20.7678 83.6811C20.8261 83.545 20.8884 83.4672 20.9623 83.3778C20.9803 83.3494 21 83.3331 21.0203 83.3162C21.0307 83.3076 21.0412 83.2988 21.0517 83.2883C21.0789 83.2611 21.1101 83.23 21.1412 83.2144C21.1749 83.1835 21.2147 83.1587 21.2518 83.1355C21.2661 83.1267 21.2799 83.118 21.2929 83.1094C21.471 83.0132 21.6001 82.9692 21.7252 82.9267L21.7596 82.9149C21.9454 82.8539 22.1095 82.8073 22.2618 82.7641L22.2631 82.7637C22.3334 82.7438 22.4012 82.7245 22.4674 82.7049C22.4986 82.6971 22.5287 82.6893 22.5589 82.6816C22.589 82.6738 22.6191 82.666 22.6502 82.6582C22.6834 82.646 22.7204 82.6362 22.7579 82.6262C22.8039 82.6139 22.8506 82.6015 22.8914 82.5843C23.3426 82.4482 23.7665 82.2498 23.9921 82.0243C24.1127 81.9037 24.171 81.7987 24.2177 81.6626C24.2255 81.647 24.2293 81.6285 24.2332 81.61C24.2371 81.5916 24.241 81.5731 24.2488 81.5575C24.2643 81.5264 24.2643 81.4681 24.2643 81.4214C24.2748 81.3506 24.2712 81.2851 24.2677 81.2225C24.266 81.1923 24.2643 81.1627 24.2643 81.1336C24.2332 80.9508 24.2021 80.7719 24.0971 80.6047C24.0077 80.4219 23.8715 80.2585 23.7043 80.0757C23.5215 79.8929 23.327 79.7257 23.0859 79.5312L22.9031 79.3795C22.8756 79.3521 22.8439 79.3238 22.8103 79.2938L22.8102 79.2937C22.7723 79.26 22.7322 79.2241 22.6931 79.185L22.5414 79.0334L22.5103 78.9867L22.4364 78.8817C22.4286 78.8661 22.4169 78.8476 22.4053 78.8292C22.3936 78.8107 22.3819 78.7922 22.3741 78.7767L22.2808 78.5978C22.2728 78.5837 22.2689 78.5686 22.2649 78.5531C22.2611 78.5384 22.2572 78.5234 22.2497 78.5083C22.1563 78.2827 22.1135 78.0844 22.0824 77.8899C22.0513 77.6915 22.0358 77.5126 22.0202 77.3298L22.0184 77.2878C22.0035 76.9424 21.9897 76.6229 22.0046 76.2603L22.0513 76.0191V75.988C22.0669 75.9725 22.0669 75.9413 22.0669 75.9258C22.0824 75.8947 22.0824 75.8519 22.0824 75.8052C22.0824 75.7313 22.0824 75.6535 22.0669 75.5796C22.0241 75.4435 21.9619 75.3541 21.8568 75.249C21.8257 75.2218 21.783 75.1907 21.7363 75.1596C21.6896 75.1324 21.6313 75.1012 21.569 75.0701C21.5394 75.0592 21.5116 75.0502 21.4842 75.0412C21.4433 75.0279 21.4033 75.0149 21.359 74.9962C21.3213 74.983 21.2772 74.9726 21.2316 74.9618L21.2315 74.9617C21.183 74.9503 21.1328 74.9384 21.0868 74.9223C21.0198 74.9049 20.9501 74.8858 20.8789 74.8662L20.8786 74.8662C20.7597 74.8336 20.6366 74.7998 20.515 74.7707C20.3931 74.7436 20.275 74.7125 20.1594 74.6821C20.0759 74.6602 19.9937 74.6385 19.9122 74.619C19.0993 74.409 18.2826 74.1678 17.4697 73.9267C15.8401 73.4288 14.2104 72.8104 12.6119 72.0714C11.0134 71.3169 9.4577 70.4418 7.97972 69.4462C6.78561 68.6333 5.65382 67.7115 4.58427 66.7313C4.57293 66.7508 4.56361 66.7696 4.55434 66.7882C4.54138 66.8143 4.52852 66.8402 4.51037 66.8675C4.36078 67.154 4.22421 67.4378 4.08787 67.7212L4.08763 67.7217L3.99698 67.9098C3.66639 68.606 3.37857 69.3294 3.12188 70.0528C2.60848 71.5153 2.20009 73.0088 1.9434 74.5178C1.67114 76.027 1.55057 77.5516 1.51946 79.0451C1.50779 80.5386 1.6128 82.0165 1.82283 83.4634C1.83413 83.6404 1.86366 83.8137 1.89376 83.9905L1.89673 84.0079C1.90712 84.1196 1.92966 84.2365 1.95275 84.3563L1.95277 84.3564C1.96424 84.4159 1.97586 84.4762 1.98618 84.5368C2.02897 84.7196 2.06008 84.883 2.0912 85.0658C2.12231 85.233 2.16509 85.4119 2.21176 85.5792C2.2351 85.6628 2.25357 85.7493 2.27205 85.8359C2.29052 85.9224 2.309 86.0089 2.33233 86.0926C2.35566 86.1762 2.38192 86.2588 2.40817 86.3415C2.43442 86.4241 2.46068 86.5068 2.48401 86.5904C2.50735 86.674 2.5336 86.7567 2.55986 86.8394C2.58611 86.922 2.61236 87.0046 2.63569 87.0882C2.6668 87.1718 2.69693 87.2506 2.72706 87.3293L2.72709 87.3294C2.75723 87.4081 2.78737 87.4869 2.81849 87.5705C3.31632 88.854 3.97751 90.048 4.7476 91.1176C6.29946 93.2606 8.26363 94.9019 10.2083 96.1854C12.1686 97.4533 14.1287 98.3712 15.9101 99.0518C16.3613 99.2152 16.7969 99.3669 17.2208 99.503C17.3257 99.5302 17.4305 99.5612 17.5354 99.5923L17.5358 99.5924C17.6448 99.6197 17.7498 99.6508 17.8392 99.6819C17.9793 99.7154 18.1503 99.7417 18.3113 99.7665L18.3114 99.7665C18.3561 99.7734 18.3999 99.7802 18.4421 99.7869C19.2588 99.9075 20.025 99.9503 20.7056 99.9814C22.0786 100.028 23.1481 99.9503 23.8871 99.8764C24.1142 99.86 24.3033 99.8365 24.4602 99.8171C24.564 99.8042 24.6537 99.7931 24.7311 99.7869C24.9295 99.7558 25.0345 99.7714 25.0345 99.7869C25.0345 99.8025 24.945 99.8452 24.7622 99.9075C24.5833 99.9658 24.2955 100.059 23.9338 100.133C23.2103 100.285 22.1097 100.464 20.7056 100.495C20.0133 100.51 19.2277 100.495 18.3837 100.421C18.2062 100.411 18.0314 100.388 17.8393 100.363L17.7186 100.347C17.6686 100.337 17.6331 100.327 17.5975 100.317C17.5778 100.311 17.5581 100.306 17.5358 100.3L17.3686 100.254L17.3573 100.251C17.255 100.224 17.1393 100.194 17.038 100.164C16.6024 100.044 16.1473 99.9075 15.6806 99.7558C13.8253 99.1374 11.7718 98.2623 9.70655 96.9944C7.63734 95.7264 5.54105 94.054 3.82192 91.7904C2.95847 90.6741 2.2195 89.4062 1.64776 88.0177C1.59451 87.8972 1.54732 87.7787 1.49745 87.6535L1.49697 87.6523C1.47779 87.6041 1.45821 87.555 1.43774 87.5043C1.39098 87.3786 1.34642 87.2464 1.30075 87.1108L1.30072 87.1108L1.25494 86.9753C1.22394 86.8843 1.1939 86.7942 1.16387 86.7041L1.16363 86.7033L1.1635 86.703C1.13337 86.6126 1.10324 86.5222 1.07214 86.4308C1.0203 86.2656 0.981954 86.1138 0.943609 85.962L0.920464 85.8708C0.897122 85.7794 0.874753 85.685 0.852383 85.5907C0.830024 85.4964 0.807665 85.4021 0.784335 85.3107C0.761002 85.2193 0.742529 85.125 0.724057 85.0307C0.705582 84.9364 0.687107 84.842 0.663769 84.7506C0.648212 84.6592 0.629738 84.5649 0.611265 84.4706C0.592789 84.3763 0.574314 84.282 0.558755 84.1906C0.53153 84.0078 0.500415 83.8133 0.4693 83.6305C0.212606 82.1215 0.0764771 80.5657 0.0764771 78.9983C0.0764771 77.4114 0.181491 75.8129 0.453748 74.2299C0.710452 72.6314 1.10328 71.064 1.63223 69.5083C1.90448 68.7226 2.20786 67.9681 2.53845 67.2135C2.70569 66.8363 2.88461 66.459 3.0674 66.0973C3.11135 66.0172 3.15213 65.9403 3.19205 65.8651C3.25104 65.7539 3.30814 65.6462 3.37077 65.5372L3.52245 65.265C3.54896 65.2252 3.57264 65.1861 3.59681 65.1463C3.62938 65.0926 3.66283 65.0374 3.70525 64.9771C3.93079 64.6154 4.42863 64.5104 4.79033 64.736C4.837 64.7632 4.87979 64.7943 4.9109 64.8255L4.94202 64.8566C5.24539 65.1405 5.54487 65.4128 5.84824 65.685C6.10492 65.1249 6.57168 64.2382 7.32621 62.8186C7.45441 62.5803 7.59178 62.3269 7.73797 62.0573C8.46988 60.7072 9.42297 58.9492 10.5544 56.6345L10.6471 56.4429L10.6472 56.4427C10.9552 55.806 11.2824 55.1297 11.5968 54.402C11.9585 53.6203 12.3085 52.7607 12.6391 51.839C12.7639 51.4969 12.8826 51.1354 13.0063 50.7587L13.0063 50.7587C13.2103 50.1375 13.4278 49.4749 13.7087 48.7897C13.9343 48.2297 14.2221 47.6735 14.5682 47.1134C14.9299 46.5572 15.3538 46.0283 15.8361 45.546C16.8006 44.5815 17.9169 43.8114 19.0331 43.1035C19.6048 42.7418 20.1493 42.4073 20.7366 42.0612C21.3239 41.7267 21.9579 41.3805 22.6813 41.1394C23.4047 40.8982 24.2176 40.7893 24.9877 40.8516C25.7577 40.9138 26.4967 41.1238 27.189 41.4116C27.4301 41.5167 27.6713 41.6372 27.8969 41.7578C28.667 32.1625 29.8416 23.7579 31.3506 22.0544C34.1563 18.8833 49.5196 18.1313 59.4585 19.6632C59.4819 19.6167 59.5056 19.5715 59.5298 19.5278ZM61.4163 16.4045C61.568 16.4512 61.778 16.2373 61.988 15.9067C62.1825 15.5761 62.3497 15.1055 62.3964 14.6699C62.4431 14.2459 62.3809 13.9892 62.2603 13.857C62.1553 13.7209 62.0036 13.7053 61.8364 13.7053C61.6691 13.7209 61.533 13.752 61.428 13.8726C61.323 13.9931 61.2607 14.1876 61.2179 14.5376C61.1713 14.8838 61.1557 15.3233 61.1713 15.7006C61.1907 16.074 61.2646 16.3618 61.4163 16.4045ZM59.4212 11.2139L59.421 11.2138L59.4208 11.2138L59.4208 11.2138L59.4207 11.2137L59.4207 11.2137L59.4207 11.2137L59.4206 11.2137L59.4206 11.2137L59.4206 11.2137L59.4205 11.2137C59.2309 11.1741 59.0412 11.1344 58.8684 11.0958C58.5495 11.018 58.355 10.9596 58.2383 10.8585C58.1333 10.738 58.1022 10.6018 58.1022 10.4346C58.1022 10.2673 58.1333 10.1312 58.285 10.0262C58.4367 9.91729 58.6934 9.87451 59.129 9.96397C59.5646 10.0534 60.0469 10.3101 60.3347 10.6135C60.6341 10.8974 60.7547 11.2008 60.6497 11.3213C60.5447 11.4419 60.2569 11.3952 59.9263 11.3213C59.7669 11.2861 59.5943 11.25 59.4214 11.2139L59.4213 11.2139L59.4212 11.2139ZM53.21 12.2269C53.1633 12.3942 53.1789 12.5147 53.21 12.6042C53.2722 12.787 53.42 12.8298 53.5873 12.8609C53.7545 12.892 53.8906 12.8765 54.0229 12.7987C54.0851 12.7676 54.1434 12.7248 54.2057 12.6625C54.2679 12.6003 54.3418 12.5109 54.4157 12.3903C54.5829 12.1647 54.8513 11.8769 55.0963 11.6202C55.3375 11.3635 55.5203 11.1379 55.458 10.9862C55.3958 10.8345 55.0808 10.8034 54.6879 10.9123C54.4935 10.959 54.264 11.0485 54.054 11.1846C53.844 11.3207 53.6456 11.488 53.4939 11.6824C53.3306 11.8808 53.2411 12.0752 53.21 12.2269ZM55.7615 12.7092C55.8665 12.3787 55.9404 12.1647 56.0765 12.0753C56.1971 11.9858 56.3488 11.9703 56.5199 12.0014C56.6872 12.0325 56.8233 12.0753 56.8972 12.227C56.9711 12.3748 57.0022 12.6315 56.8816 13.0554C56.8077 13.2693 56.7027 13.4949 56.5666 13.7049C56.4305 13.9188 56.2477 14.1133 56.0532 14.2339C55.8393 14.3661 55.6604 14.4283 55.5087 14.4283C55.357 14.4283 55.2676 14.3817 55.2364 14.3078C55.1931 14.2022 55.261 14.0607 55.3417 13.8927C55.3769 13.8194 55.4146 13.741 55.4465 13.6582C55.567 13.3899 55.6721 13.0398 55.7615 12.7092ZM55.8665 8.77384C56.0609 9.07721 56.2593 9.30279 56.4265 9.27167C56.5782 9.24056 56.6677 8.94108 56.6677 8.54825C56.6677 8.15543 56.5471 7.6576 56.3643 7.28036C56.1815 6.90313 56.0026 6.7203 55.8354 6.66196C55.6681 6.59973 55.532 6.6464 55.3997 6.73586C55.2636 6.82531 55.1586 6.93032 55.1275 7.08202C55.0964 7.24926 55.143 7.45929 55.3103 7.77432C55.4581 8.09324 55.6681 8.47047 55.8665 8.77384ZM52.8165 4.71288C52.4704 4.62343 52.062 4.4873 51.7314 4.35118C51.4008 4.21505 51.218 4.09447 51.1247 3.94279C51.0469 3.81055 51.0469 3.65886 51.0936 3.50718C51.1402 3.35549 51.1986 3.22326 51.3658 3.16103C51.5175 3.0988 51.7742 3.11435 52.167 3.26604C52.5598 3.41773 52.9798 3.71721 53.2521 4.00502C53.5244 4.3045 53.6449 4.59232 53.5555 4.71288C53.4505 4.84901 53.1627 4.80234 52.8165 4.71288ZM46.0302 4.24648C46.1819 4.29315 46.3919 4.26204 46.738 4.15703C47.0842 4.03646 47.477 3.88477 47.8076 3.72142C48.1226 3.55418 48.3793 3.40638 48.3677 3.23914C48.3521 3.07189 48.0798 2.95133 47.6754 2.90854C47.2825 2.86187 46.7691 2.90854 46.3763 3.04467C45.9679 3.1808 45.7734 3.34804 45.6957 3.49583C45.6218 3.64751 45.649 3.7992 45.7268 3.93144C45.789 4.07923 45.8785 4.1998 46.0302 4.24648ZM42.6341 7.20622C42.1364 7.79352 41.8641 7.73129 41.6074 7.52126C41.3663 7.32292 41.2301 7.05065 41.7629 6.45557C42.0352 6.1522 42.4124 5.84883 42.743 5.65436C43.0736 5.45601 43.377 5.38212 43.482 5.50268C43.587 5.62325 43.482 5.89551 43.3148 6.2261C43.132 6.54114 42.8908 6.91841 42.6341 7.20622ZM38.2161 11.8492C38.4728 12.0437 38.7451 12.1215 39.2273 11.503C39.7096 10.8846 40.1608 9.88896 39.908 9.69451C39.6513 9.50004 38.7917 10.1612 38.3094 10.7796C37.8232 11.3941 37.9594 11.6509 38.2161 11.8492ZM35.6497 15.8169C35.3152 16.1047 35.0469 16.1942 34.8796 16.1786C34.7163 16.1475 34.6113 16.0425 34.5179 15.8869C34.444 15.7391 34.3973 15.603 34.444 15.4513C34.4868 15.2996 34.6229 15.148 34.8796 14.9224C35.1363 14.6968 35.4825 14.4245 35.7858 14.2301C36.0853 14.0201 36.3731 13.8995 36.4937 14.0045C36.6298 14.1095 36.587 14.3973 36.4198 14.759C36.2681 15.1246 35.9803 15.5291 35.6497 15.8169ZM30.2936 15.3193C29.9474 15.1832 29.7335 15.1521 29.5701 15.1987C29.4185 15.2454 29.329 15.366 29.2551 15.5021C29.1812 15.6538 29.1501 15.7899 29.224 15.9377C29.2979 16.0894 29.4962 16.2528 29.8735 16.4044C30.2663 16.5561 30.7642 16.6456 31.157 16.63C31.5654 16.6145 31.8493 16.4939 31.8649 16.3422C31.8804 16.175 31.6549 16.0116 31.3359 15.8288C31.0326 15.6343 30.6436 15.4554 30.2936 15.3193ZM33.0234 23.9291C33.3268 23.614 34.9097 22.7506 38.9508 22.1944L39.3125 22.1477C39.3436 23.2795 39.5225 25.0881 40.2459 25.3604C41.3155 25.7376 49.6893 25.9943 50.9723 25.1192C51.7424 24.5903 52.3142 23.1901 52.6486 22.1477C57.7631 22.7506 61.0496 23.9718 61.7925 24.8469C62.1231 26.2043 62.3798 27.7872 62.5781 29.5374C61.9436 29.4794 61.3125 29.4518 60.6563 29.4231L60.6562 29.4231L60.5129 29.4169C58.6732 29.3702 56.7247 29.4791 54.7061 29.7786C53.6949 29.9303 52.6526 30.1247 51.5985 30.3659C51.3419 30.4281 51.054 30.502 50.7857 30.5759C50.7066 30.6019 50.6276 30.6269 50.5486 30.6518L50.5483 30.6519C50.3554 30.7129 50.1631 30.7737 49.9728 30.8481C49.4283 31.0426 48.8877 31.2721 48.3742 31.5288C45.7178 32.8278 43.3336 34.7103 41.2529 36.9156C40.2105 38.0318 39.246 39.222 38.402 40.521C37.558 41.8201 36.819 43.193 36.2434 44.671C35.6833 46.1489 35.3099 47.7319 35.2632 49.346C35.2166 50.9756 35.5355 52.648 36.29 54.1143C37.0289 55.5923 38.1452 56.8291 39.4131 57.8092C40.0471 58.2915 40.7238 58.7154 41.4044 59.0771C41.9645 59.3804 42.5362 59.6371 43.1236 59.8783C43.318 61.0568 43.6059 62.2002 43.9676 63.3164L43.985 63.3689L43.9851 63.3689C44.0843 63.6668 44.1843 63.967 44.2982 64.2499L44.4926 64.7166L44.7182 65.1833C44.7867 65.3239 44.8719 65.4645 44.9552 65.6019L44.9553 65.6022L44.9749 65.6345L45.111 65.8601L45.4455 66.3112C45.5077 66.3851 45.5661 66.4474 45.64 66.5213C45.7348 66.6405 45.8585 66.7406 45.9864 66.8441L45.9866 66.8442C46.0213 66.8723 46.0563 66.9006 46.0911 66.9296C46.1501 66.9793 46.2312 67.0264 46.315 67.075C46.3278 67.0825 46.3407 67.09 46.3536 67.0976C46.3621 67.1025 46.3705 67.1075 46.3789 67.1124L46.3893 67.1194C46.4321 67.1481 46.473 67.1755 46.5306 67.1863L46.8651 67.3108C46.8827 67.3152 46.9 67.3183 46.9173 67.321C46.9323 67.3232 46.9473 67.325 46.9627 67.3269C46.9929 67.3306 47.0245 67.3345 47.0596 67.3419C47.0894 67.3419 47.1182 67.3455 47.1484 67.3492C47.1812 67.3532 47.2155 67.3575 47.2541 67.3575C47.2857 67.3575 47.3203 67.3535 47.3544 67.3495C47.3874 67.3457 47.4198 67.3419 47.4485 67.3419C47.7208 67.3264 47.9619 67.2214 48.1875 67.0852C48.2925 67.0113 48.3975 66.9335 48.4909 66.8441L48.627 66.7079C48.6789 66.6464 48.7172 66.5713 48.7556 66.4962L48.7787 66.4512C48.8667 66.2362 48.8918 66.0757 48.916 65.9218C48.9184 65.9065 48.9208 65.8913 48.9232 65.8761C48.9255 65.8617 48.9279 65.8473 48.9304 65.8328C48.9615 65.6501 48.977 65.5023 48.9926 65.335C49.0103 65.1554 49.023 64.9746 49.0357 64.7939C49.0452 64.6576 49.0548 64.5215 49.0665 64.386C49.0871 64.0559 49.1056 63.7293 49.1239 63.4053C49.1609 62.7521 49.1973 62.1099 49.2493 61.4729C50.1983 61.6401 51.1512 61.7607 52.1002 61.8657C52.6719 61.9279 53.2631 61.9707 53.8349 62.0018C54.4066 62.0329 54.9822 62.0485 55.554 62.0329C57.6076 62.0174 59.5834 61.7762 61.4386 61.3523C60.6374 66.813 59.6145 71.1418 58.5877 72.939C58.4205 73.0595 57.2303 73.8607 52.917 74.448C48.7827 75.0081 43.532 75.1286 38.8731 74.763C36.1583 74.553 33.9841 74.0707 32.4012 73.5846C30.6043 73.0401 29.3986 71.5193 29.3986 69.8119C29.3889 67.6374 29.52 64.4122 29.6862 60.3258C29.7863 57.8631 29.8991 55.0877 30.0015 52.0411C30.0093 51.9278 30.0132 51.8145 30.0171 51.7008C30.021 51.588 30.0249 51.4747 30.0326 51.3604C30.0637 51.3449 30.0948 51.3293 30.1221 51.3138L30.3632 51.2088L30.5888 51.1037C31.2072 50.8159 31.8567 50.4698 32.4285 49.9136C32.7163 49.6258 32.973 49.2797 33.1363 48.8557C33.3036 48.4473 33.3619 47.9651 33.3191 47.5295C33.2725 47.0783 33.1091 46.6699 32.9263 46.3238C32.7319 45.9621 32.5024 45.6587 32.2768 45.3748C32.0357 45.087 31.7945 44.8303 31.5378 44.5892C31.4775 44.5289 31.4133 44.4686 31.3492 44.4083L31.3491 44.4082C31.2849 44.3479 31.2208 44.2877 31.1605 44.2275L30.7833 43.8813C30.7355 43.8406 30.6909 43.7991 30.6462 43.7575C30.5928 43.7077 30.5392 43.6578 30.4799 43.6091C31.1528 33.4621 32.4478 24.863 33.0234 23.9291ZM55.5156 91.1219C55.364 90.6085 55.2278 90.0795 55.185 89.5545L55.1539 89.3601V89.1656L55.1384 88.7572L55.1695 88.3488C55.1695 88.2866 55.1695 88.2127 55.185 88.1544L55.2162 87.9599C55.3678 86.902 55.8346 85.8635 56.5736 85.0934C56.9353 84.7162 57.3864 84.4128 57.8571 84.2339C58.3394 84.0511 58.8528 83.9928 59.3661 84.0667C60.4085 84.2028 61.4314 84.8056 62.0498 85.6807C62.6837 86.5714 62.9404 87.7343 62.851 88.8777C62.7615 90.0251 62.2909 91.1413 61.5831 92.0904C60.8752 93.0549 59.9223 93.8717 58.8683 94.4902C58.5805 94.6574 58.281 94.8052 57.9621 94.9569C56.8886 93.8951 55.9978 92.5844 55.5156 91.1219ZM48.983 49.3054C49.4875 50.3143 50.1507 51.2156 50.9159 51.9866C51.1143 52.1623 51.3127 52.3381 51.5111 52.5365C51.6698 52.6589 51.843 52.7813 52.0162 52.9037L52.0164 52.9039L52.146 52.9956L52.1687 53.0183C52.18 53.0183 52.1857 53.024 52.1913 53.0296C52.1951 53.0334 52.1989 53.0372 52.2044 53.0393C52.2071 53.0403 52.2103 53.041 52.214 53.041C52.2771 53.1041 52.3549 53.1428 52.4382 53.1843L52.4383 53.1843L52.4578 53.194L52.4804 53.2167C52.5343 53.2507 52.5896 53.2833 52.6448 53.3159C52.7001 53.3485 52.7554 53.3811 52.8092 53.4151C52.863 53.4491 52.9183 53.4817 52.9736 53.5143C53.0288 53.5469 53.0841 53.5795 53.138 53.6135C53.2027 53.6544 53.2695 53.685 53.3408 53.7177C53.3881 53.7394 53.4374 53.7621 53.4894 53.7892C54.3907 54.2484 55.3373 54.4921 56.2614 54.6451C57.1855 54.7982 58.064 54.7528 58.8972 54.6678C60.5467 54.4467 61.9298 53.8345 62.9218 53.126C63.9308 52.4458 64.5486 51.6975 64.9454 51.1931C65.2845 50.6946 65.442 50.3965 65.4347 50.3282C65.4457 50.3545 65.4606 50.3741 65.4782 50.3881C65.5689 50.4562 65.7446 50.3882 66.096 49.9914C66.4475 49.5946 66.952 48.869 67.3715 47.5086C67.4632 47.2772 67.5129 47.0121 67.5658 46.7291L67.5659 46.7289C67.5882 46.6099 67.611 46.4877 67.6379 46.3636C67.6679 46.2171 67.678 46.0706 67.6881 45.9258L67.6881 45.9256C67.6932 45.8519 67.6982 45.7786 67.7059 45.706C67.7059 45.6522 67.7116 45.5913 67.7172 45.5303C67.7229 45.4694 67.7286 45.4084 67.7286 45.3546V44.9805C67.7286 43.9715 67.5755 42.7585 67.0937 41.483C66.5892 40.2075 65.7333 38.8471 64.4124 37.6568C64.272 37.5345 64.1316 37.4266 63.9912 37.3188L63.9909 37.3186C63.9669 37.3002 63.943 37.2818 63.919 37.2634C63.9078 37.2547 63.8965 37.246 63.8853 37.2373C63.8403 37.2036 63.7968 37.1713 63.7532 37.139L63.7522 37.1382C63.7082 37.1056 63.6643 37.073 63.6189 37.0389L63.5962 37.0162C63.5055 36.9482 63.4431 36.9085 63.3524 36.8632H63.3298H63.3071C63.1441 36.7561 62.9811 36.6605 62.8056 36.5575L62.6892 36.4891C62.5413 36.417 62.3933 36.3424 62.2471 36.2686C62.2081 36.2489 62.1691 36.2293 62.1304 36.2098C62.0974 36.1932 62.0645 36.1767 62.0317 36.1603C61.1304 35.7408 60.0988 35.4347 58.9991 35.327C56.7771 35.0833 54.3793 35.6331 52.4237 36.9539C50.4454 38.252 48.9943 40.3607 48.3764 42.6507C48.0703 43.7958 47.9796 45.0032 48.11 46.1483C48.1497 47.1686 48.4785 48.2907 48.983 49.3054ZM65.5462 49.6626C65.4118 50.0137 65.3935 50.2123 65.4303 50.3167C65.4294 50.3158 65.4284 50.315 65.4272 50.3145C65.3819 50.2691 65.1211 50.5355 64.7016 50.9947L64.5984 51.0893C64.1445 51.5059 63.5077 52.0906 62.593 52.6215C61.6237 53.1941 60.3256 53.6532 58.8121 53.7893C58.0638 53.8346 57.2533 53.8346 56.437 53.6589C56.3146 53.6407 56.1922 53.6081 56.0697 53.5755C56.0391 53.5673 56.0085 53.5591 55.9779 53.5512C56.6581 53.3528 57.2759 53.0694 57.8031 52.7349C58.9481 52.0547 59.7814 51.2611 60.4389 50.5582C60.9434 50.0084 61.2949 49.5266 61.584 49.1071C62.4852 49.6343 63.1428 49.963 63.6076 50.1614C64.3785 50.4675 64.6619 50.3825 64.7753 50.2068C64.883 50.0084 64.8433 49.7476 64.2254 49.1978C63.874 48.8917 63.3468 48.4722 62.5759 47.9224C62.6213 47.8997 62.6666 47.8544 62.7063 47.8147L62.7063 47.8147C62.9897 47.5312 63.4545 46.9984 63.9817 46.0347C64.2481 45.5529 64.5316 44.9577 64.798 44.1868C65.0644 43.4386 65.3025 42.5373 65.3705 41.4149V41.3072C65.5009 41.5509 65.6142 41.7663 65.6992 42.0101C66.1584 43.0871 66.3341 44.0961 66.3795 44.9804C66.3795 45.0343 66.3851 45.0895 66.3908 45.1448C66.3965 45.2001 66.4021 45.2553 66.4021 45.3092V45.6153C66.4021 45.8137 66.4021 46.0121 66.3795 46.2105C66.3657 46.3236 66.3541 46.4347 66.3428 46.5425L66.3428 46.5427C66.3167 46.7911 66.2926 47.0218 66.2491 47.2195C66.0512 48.2183 65.8121 48.8994 65.6473 49.3691L65.6473 49.3692L65.6472 49.3694C65.6091 49.478 65.5749 49.5753 65.5462 49.6626ZM59.8212 38.0704C60.5015 37.8493 61.1647 37.787 61.7145 37.872C61.7534 37.8817 61.7953 37.8914 61.8373 37.9011L61.8374 37.9012C61.8934 37.9141 61.9494 37.9271 61.9979 37.94C61.4028 38.4445 60.4391 39.6576 58.6762 42.2027C58.5642 42.3692 58.4497 42.5386 58.3337 42.7103L58.3333 42.7109L58.333 42.7113C57.991 43.2173 57.6357 43.7429 57.2931 44.2717C56.3237 43.5915 55.3601 42.9283 54.4985 42.3388C54.9406 41.721 55.4451 41.1541 55.9722 40.6213C57.0946 39.4763 58.4382 38.5069 59.8212 38.0704ZM53.8014 43.3421C54.6176 44.045 55.5189 44.8158 56.4598 45.5414C54.833 48.0469 53.3366 50.5523 52.7017 51.8731C52.5486 51.7201 52.4183 51.5217 52.3049 51.3233C51.9988 50.7508 51.8457 50.0252 51.8457 49.2543C51.8457 48.506 51.9761 47.7124 52.1745 46.9245C52.3956 46.1536 52.7017 45.3826 53.0531 44.6401C53.2912 44.2036 53.535 43.7615 53.8014 43.3421ZM59.9573 50.0479C59.2771 50.6431 58.4155 51.3233 57.3385 51.8731C56.8113 52.1395 56.2161 52.3776 55.5813 52.508C54.9635 52.6384 54.2832 52.6611 53.688 52.4627C53.4896 52.3946 53.2912 52.3096 53.1155 52.1962C54.1075 51.1419 55.8875 48.8518 57.6446 46.4144C58.2398 46.8565 58.8294 47.2703 59.4246 47.6671C60.0821 48.1262 60.6773 48.5004 61.1818 48.8121C60.8813 49.1919 60.4618 49.6114 59.9573 50.0479ZM63.4321 43.7388C63.2564 44.419 63.0353 45.0142 62.8596 45.4734C62.6725 45.9582 62.5137 46.3437 62.3847 46.6569L62.3847 46.657C62.2558 46.97 62.1567 47.2108 62.0887 47.4063C62.0777 47.4282 62.072 47.4502 62.0665 47.4715C62.0607 47.4942 62.055 47.5162 62.0433 47.5366C61.9189 47.4518 61.7885 47.3624 61.6521 47.2688L61.6517 47.2686C61.2596 46.9998 60.8176 46.6968 60.3257 46.3689C59.7838 46.0148 59.2216 45.62 58.6631 45.2279L58.5686 45.1615C58.8423 44.7623 59.1178 44.3703 59.3889 43.9846L59.3895 43.9838C59.5955 43.6908 59.7989 43.4014 59.997 43.1152C61.8223 40.4567 62.5705 39.1132 62.8086 38.3877L63.007 38.5861C63.3131 38.9602 63.5342 39.4193 63.6419 39.8841C63.7496 40.366 63.7949 40.8535 63.7949 41.2899C63.7836 42.2422 63.6078 43.0587 63.4321 43.7388ZM53.2289 38.1553C54.8331 37.101 56.766 36.6589 58.5743 36.7949C57.9791 37.0613 57.4292 37.3674 56.8794 37.7415C56.1311 38.246 55.4282 38.8412 54.7934 39.4987C54.1982 40.0939 53.671 40.7514 53.1891 41.4544C52.3105 40.8592 51.5849 40.3773 51.1201 40.1109C51.7096 39.34 52.4127 38.6599 53.2289 38.1553ZM49.7542 42.9054C49.9979 42.0495 50.389 41.2105 50.8992 40.4623C51.2506 40.9045 51.8685 41.5393 52.6564 42.2875C52.3049 42.8374 51.9988 43.4099 51.7324 44.0051C51.3356 44.8384 51.0295 45.7 50.8084 46.5785C50.5874 47.4571 50.4797 48.3811 50.5023 49.2824C50.3946 49.1067 50.3039 48.9083 50.2189 48.7099C49.8221 47.8313 49.5387 46.862 49.4707 45.8757C49.38 44.8837 49.4707 43.8748 49.7542 42.9054Z" fill="#26C165"/>
</svg>
