<svg width="113" height="101" viewBox="0 0 113 101" fill="none" xmlns="http://www.w3.org/2000/svg">
<path d="M112.743 12.6908C112.707 11.6182 112.601 10.5502 112.352 9.49604C112.103 8.44183 111.744 7.38758 111.21 6.42545C110.676 5.46332 109.995 4.57025 109.176 3.85207C108.356 3.12011 107.445 2.53085 106.459 2.06593C105.497 1.60097 104.475 1.27872 103.476 1.04855C102.459 0.818372 101.442 0.675654 100.424 0.58359C99.4254 0.514538 98.4081 0.47771 97.4044 0.514538L96.6541 0.532952L95.9221 0.56978C95.4387 0.588194 94.9416 0.625023 94.4582 0.643437C92.5109 0.730903 90.6005 0.84139 88.7084 0.928859C84.9243 1.14522 81.2276 1.33858 77.6553 1.53652C73.4938 1.76669 69.5116 1.98307 65.7276 2.18102C59.9595 2.44802 54.0163 2.6828 47.9629 2.85774C43.4468 2.98204 39.9988 5.804 38.9446 9.80443C38.9446 9.82285 38.9262 9.84126 38.9262 9.85968C38.8709 10.076 38.8203 10.2878 38.7651 10.4858C38.7282 10.5916 38.7098 10.7021 38.6914 10.7896C38.6776 10.8725 38.6592 10.9783 38.6592 11.0704C38.6224 11.2684 38.5855 11.4617 38.5717 11.6597C38.5533 11.8576 38.5533 12.051 38.5349 12.2305C38.4981 12.6034 38.5349 12.9625 38.5349 13.3031C38.5349 13.6438 38.5717 13.966 38.6085 14.2653C38.7144 15.3701 38.8065 16.231 38.8755 16.8524C36.7349 17.4417 34.645 18.39 32.785 19.6929C32.2833 19.389 31.7861 19.0852 31.2658 18.7814C30.9252 18.5834 30.5891 18.4085 30.23 18.2289C29.871 18.0494 29.5165 17.8699 29.1068 17.7133C28.8904 17.6397 28.6971 17.5522 28.3564 17.5154C28.3012 17.5154 28.2505 17.5154 28.1953 17.497H28.0894C28.0526 17.497 28.0341 17.497 27.9835 17.5154C27.9283 17.5154 27.896 17.5338 27.8408 17.5522L27.804 17.5706H27.7856L27.7487 17.5891L27.6244 17.6443C27.537 17.6811 27.4817 17.718 27.4265 17.7502C27.3528 17.787 27.3022 17.8238 27.247 17.8561C26.8372 18.1415 26.5334 18.4453 26.248 18.7676C25.6956 19.3936 25.2306 20.0335 24.784 20.7148C24.3559 21.3915 23.9646 22.0913 23.6239 22.8417C23.4628 23.2145 23.3017 23.6104 23.1774 24.0202C23.0531 24.4299 22.9472 24.858 22.961 25.4288C22.961 25.5715 22.9979 25.7327 23.0347 25.8938C23.0531 25.9812 23.0899 26.0733 23.1222 26.1424C23.159 26.2298 23.2096 26.3219 23.2465 26.391C23.426 26.658 23.5687 26.8007 23.7298 26.9618C24.0521 27.2656 24.3559 27.5327 24.6597 27.7812C25.1063 28.1403 25.5712 28.4764 26.0362 28.7986C25.6265 30.2257 25.4102 31.7265 25.4286 33.2088C25.447 34.6544 25.6772 36.0998 26.0915 37.4763C25.7508 37.6742 25.4286 37.8676 25.0925 38.084C24.8255 38.2451 24.5585 38.4246 24.2869 38.618C24.0199 38.8159 23.7529 38.9908 23.4491 39.2947C23.4122 39.3315 23.3754 39.3821 23.3248 39.419C23.2879 39.4742 23.2511 39.5064 23.2005 39.5801L23.1268 39.686C23.1084 39.7044 23.1084 39.7228 23.09 39.7412C23.0716 39.778 23.0531 39.8149 23.0531 39.8287C23.0347 39.9024 22.9979 39.9714 22.9795 40.0266C22.9611 40.0819 22.9611 40.1003 22.9611 40.1325C22.9611 40.2062 22.9427 40.2752 22.9427 40.3305V40.51C22.9427 40.6343 22.9611 40.7264 22.9611 40.8323C23.0163 41.2236 23.1038 41.5458 23.1912 41.8865C23.3892 42.531 23.6378 43.1203 23.9232 43.691C24.1902 44.2618 24.4941 44.8143 24.8347 45.3713C25.1754 45.9053 25.5298 46.4439 25.958 46.9411C26.1743 47.1897 26.4045 47.4429 26.6715 47.673C26.9569 47.9032 27.2424 48.1564 27.7441 48.3175C27.7994 48.3359 27.8684 48.3544 27.9421 48.3728C28.0158 48.3912 28.0848 48.4096 28.1585 48.4096C28.3012 48.4096 28.4623 48.4096 28.5498 48.3912L28.7109 48.3728L28.8536 48.3359C28.9411 48.3175 29.0331 48.2991 29.1206 48.2807C29.4612 48.1932 29.7467 48.0828 30.0505 47.9769C30.695 47.7283 31.3027 47.4751 31.8735 47.1897C32.3017 46.9917 32.693 46.7984 33.1073 46.6004C34.714 47.673 36.4264 48.4556 38.1435 48.9942C37.8213 50.9414 37.5174 52.8335 37.2504 54.4218C36.8914 54.5093 36.5369 54.6198 36.1962 54.744C35.4643 55.0295 34.8014 55.4392 34.341 55.9778C34.1109 56.2448 33.9497 56.5303 33.8254 56.8341C33.7196 57.1379 33.6643 57.3681 33.6275 57.6029C33.6091 57.6903 33.5907 57.8008 33.5722 57.8883C33.4111 57.764 33.25 57.6581 33.0705 57.5292C32.9968 57.474 32.9277 57.4233 32.8541 57.3681L32.7482 57.2944L32.693 57.2576L32.6193 57.2024C32.5134 57.1287 32.403 57.0597 32.2971 57.0044C32.1912 56.9492 32.0669 56.8985 31.938 56.8433C31.4546 56.6637 30.9206 56.6131 30.4004 56.6637C29.8848 56.7374 29.3646 56.9307 28.9365 57.253C28.7201 57.4141 28.5267 57.5937 28.3472 57.787C28.2229 57.9481 28.0986 58.0908 27.9559 58.252C27.7073 58.5558 27.4541 58.878 27.2055 59.1819C26.2066 60.434 25.2076 61.7369 24.2776 63.0581C23.8127 63.721 23.3477 64.3793 22.9012 65.0422C22.4546 65.7189 22.0081 66.4187 21.6674 67.2012C21.5063 67.5925 21.3636 67.9884 21.2577 68.4165C21.1518 68.8262 21.115 69.2544 21.0965 69.6687C21.0781 70.4881 21.2024 71.2384 21.2945 71.9198C21.3497 72.2605 21.382 72.5828 21.4004 72.9004C21.4188 73.2226 21.4372 73.5265 21.4188 73.8303C21.4004 74.438 21.3129 75.0088 21.1886 75.5428C21.0643 76.0768 20.8848 76.5786 20.6868 77.0251C20.4889 77.4717 20.2771 77.863 20.0607 78.222C20.0423 78.2404 20.0423 78.2588 20.0239 78.2773C19.3978 77.7617 18.6843 77.4026 17.9155 77.5821C16.4884 77.9412 15.0566 78.4016 13.648 78.8343C13.6111 78.8343 13.5743 78.8527 13.5421 78.8711C13.2843 78.9586 13.0173 79.0461 12.7503 79.1197C12.0736 79.3177 11.3738 79.511 10.8214 79.9576C10.7155 80.045 10.6051 80.1371 10.5176 80.243C10.0158 80.4409 9.44496 80.6159 8.82349 80.7448C8.03628 80.9059 7.14318 80.9611 6.23632 80.7816C5.32482 80.6021 4.39491 80.1923 3.71821 79.4236C3.02308 78.6548 2.52132 77.6191 2.18061 76.459C1.83996 75.2989 1.62819 74.0283 1.57295 72.7254C1.46707 70.1014 2.07474 67.2795 3.46504 64.7613C3.55251 64.6002 3.64458 64.4575 3.73205 64.2964C3.81951 64.1353 3.93 63.9926 4.01747 63.8498C4.12335 63.6887 4.23383 63.5276 4.33972 63.3665C4.35813 63.4217 4.39496 63.4724 4.41337 63.5092C4.80467 64.2411 5.32488 64.9547 5.98314 65.544C6.64605 66.1332 7.44708 66.5982 8.32177 66.8468C9.21485 67.0954 10.177 67.1322 11.1253 66.8284C12.0552 66.543 12.8747 65.9537 13.4455 65.1481C13.731 64.7384 13.9473 64.2734 14.0716 63.7716C14.1775 63.2698 14.1959 62.7358 14.1085 62.2524C13.9289 61.2534 13.3949 60.3972 12.6814 59.7527C12.3223 59.4304 11.9126 59.1634 11.4661 58.9655C11.0196 58.7675 10.5731 58.6616 10.1081 58.6064C9.17823 58.5005 8.26673 58.6248 7.42893 58.9102C6.59108 59.1956 5.85916 59.6422 5.19625 60.1624C4.9983 59.0575 4.9983 57.9665 5.10879 56.9307C5.23308 55.6969 5.50009 54.5184 5.80392 53.4319C6.44842 51.2544 7.28624 49.413 8.12416 47.8432C8.962 46.2918 9.83664 45.0028 10.6423 43.9486C11.4479 42.8944 12.1936 42.0565 12.8198 41.3615C14.1041 39.985 14.9788 39.2024 15.4806 38.7006C15.9824 38.1988 16.0883 37.9687 16.0146 37.8628C15.941 37.7569 15.6924 37.7891 15.0525 38.1298C14.4264 38.4889 13.3906 39.1288 11.9267 40.45C11.1948 41.1129 10.3753 41.9507 9.48228 43.0234C8.58919 44.096 7.62707 45.3988 6.69712 47.0238C5.76721 48.6489 4.84191 50.5961 4.12373 52.9164C3.76466 54.0765 3.47923 55.347 3.31812 56.7373C3.17542 58.1138 3.19382 59.6283 3.56671 61.1843C3.60354 61.3454 3.64037 61.5065 3.69101 61.6677C3.60354 61.7735 3.51148 61.884 3.42401 62.0083C3.17542 62.3306 2.94063 62.6712 2.74729 63.0073C2.64141 63.1868 2.53093 63.3479 2.42504 63.5229C2.33757 63.7024 2.22708 63.882 2.13962 64.0385C0.657293 66.842 0.0864256 69.931 0.284414 72.7714C0.371882 74.1801 0.643493 75.5382 1.07162 76.7904C1.48134 78.0241 2.07059 79.221 2.96371 80.1095C3.41026 80.5561 3.91204 80.9151 4.46442 81.1637C4.99842 81.4123 5.55545 81.555 6.07107 81.6287C7.1437 81.7714 8.12426 81.6471 8.96206 81.4307C9.35336 81.3248 9.71244 81.2005 10.0347 81.0716C9.96103 81.3202 9.96103 81.5734 10.0163 81.822C10.2142 82.6414 11.0889 83.088 11.8577 83.4839C12.6265 83.8568 13.446 84.4461 13.4643 85.2885C13.4828 86.0388 12.8198 86.6465 12.1247 86.9319C11.4296 87.2173 10.6608 87.291 9.96572 87.5948C9.28899 87.8986 8.64449 88.5569 8.73194 89.3073C8.85624 90.3431 10.1959 90.8265 10.4997 91.8254C10.8219 92.8244 9.92885 93.8417 8.94831 94.2192C7.96776 94.5921 6.87674 94.5782 5.89622 94.9143C4.91567 95.255 3.94898 96.1665 4.14685 97.1977C4.28956 97.948 4.96628 98.4498 5.61079 98.8411C8.00457 100.342 20.4658 101.037 23.8222 100.02C24.5726 99.7894 25.3598 99.5362 25.857 98.9285C26.322 98.3577 26.4279 97.6073 26.5015 96.8754C26.5568 96.2124 26.589 95.5358 26.589 94.8774C27.0724 94.6795 27.6248 94.4493 28.2693 94.2329C28.9829 93.9843 29.8069 93.7312 30.769 93.4826C31.7174 93.234 32.8038 92.9992 34.0375 92.7506C36.4819 92.2488 39.2533 91.7516 41.8958 90.8217C43.217 90.3384 44.4829 89.7675 45.6476 89.054C46.2185 88.6949 46.7709 88.322 47.2727 87.8939C47.7745 87.4842 48.2348 87.0376 48.6676 86.5727C49.0773 86.1077 49.4548 85.6428 49.7586 85.164C50.0624 84.6806 50.3294 84.1835 50.5274 83.7001C50.9187 82.7379 51.043 81.7712 50.9923 81.0023C50.9371 80.252 50.7437 79.6811 50.5642 79.3083C50.7069 79.1287 50.8312 78.9492 50.9371 78.7558C51.1857 78.3461 51.3836 77.8812 51.4895 77.4162C51.5954 76.9513 51.6138 76.4863 51.5632 76.0582C51.4573 75.2204 51.0798 74.5575 50.7069 74.203C50.6517 74.1478 50.6195 74.1156 50.5642 74.0787C50.6011 74.0419 50.6379 73.9913 50.6701 73.9544C50.9739 73.5447 51.2225 73.0798 51.3652 72.5779C51.5079 72.0761 51.5079 71.579 51.4389 71.1509C51.2962 70.3315 50.9049 69.7238 50.5274 69.3648C50.8312 69.1484 51.1535 68.9182 51.4895 68.6696C51.8624 68.3842 52.2215 68.0804 52.6312 67.7213C52.8476 67.5233 53.0593 67.3116 53.2757 67.0262C53.4921 66.7407 53.6854 66.3494 53.7591 65.9029C53.8327 65.4564 53.7591 65.0098 53.6532 64.6507C53.5289 64.2779 53.3678 63.9372 53.2067 63.6334C53.0455 63.3479 52.8844 63.0625 52.7049 62.7587C52.5437 62.4733 52.3642 62.1694 52.1893 61.8656C52.1018 61.7045 52.0097 61.5618 51.9223 61.4006C51.8348 61.2395 51.7243 61.06 51.6 60.8851C51.4757 60.6871 51.2962 60.4753 51.0476 60.2774C50.799 60.0794 50.4583 59.9183 50.1361 59.8861C49.7954 59.8309 49.4732 59.8861 49.2062 59.9598C48.9392 60.0472 48.7044 60.1577 48.5111 60.2636C48.3131 60.3879 48.1198 60.5122 47.9586 60.6365C47.7975 60.7608 47.6548 60.8666 47.4937 60.9955C46.2968 61.9255 45.0814 62.8691 43.8845 63.8175C43.8661 63.8359 43.8293 63.8543 43.8109 63.8727C44.041 62.998 44.3264 61.6768 44.6303 59.6743C44.6487 59.5684 44.6671 59.4763 44.6855 59.3705C44.7039 59.2646 44.7223 59.1541 44.7408 59.0482C44.7776 58.8319 44.796 58.6017 44.796 58.3531C44.8144 57.9065 44.7776 57.4416 44.6717 56.9582C44.6349 56.8155 44.5981 56.6728 44.5474 56.5301C45.1551 56.5485 45.7627 56.5485 46.3519 56.4933C46.8169 56.4564 47.2818 56.4058 47.7606 56.3137C48.2256 56.2263 48.7089 56.0835 49.2062 55.8119C49.3305 55.7245 49.4548 55.6508 49.5975 55.5265C49.6343 55.4897 49.6711 55.4713 49.6849 55.4391L49.7908 55.3332L49.8783 55.2273C49.8967 55.1905 49.9335 55.1398 49.9519 55.103L50.0256 54.9787L50.0624 54.9235L50.0808 54.8682L50.1545 54.6703C50.2097 54.546 50.2281 54.4401 50.2604 54.3112C50.3847 53.8646 50.4399 53.4365 50.4905 53.0268C50.6885 51.6182 50.7575 50.297 50.8128 49.0264C53.2066 48.2576 55.1861 47.1528 56.779 45.919C57.9022 46.582 58.938 47.1712 59.9416 47.65C60.227 47.7743 60.5124 47.8986 60.8163 48.0091C60.9774 48.0644 61.1201 48.115 61.3181 48.1518C61.3733 48.1518 61.4055 48.1702 61.4792 48.1702H61.5667H61.6909C61.7646 48.1702 61.9211 48.115 61.9395 48.0966L62.0822 48.0229C62.1697 47.9677 62.2434 47.9355 62.3124 47.8802C62.3861 47.825 62.4551 47.7927 62.5104 47.7375C62.5656 47.6823 62.6347 47.6316 62.6899 47.5948C62.7451 47.5396 62.7958 47.4889 62.851 47.4521C63.049 47.2541 63.2239 47.0608 63.385 46.8628C64.0295 46.0756 64.4761 45.3436 64.849 44.6853C65.2219 44.0224 65.4935 43.4332 65.6868 42.936C66.0781 41.9186 66.1886 41.1682 66.1334 40.6848C66.0965 40.4546 66.0459 40.2935 65.9722 40.2014C65.8986 40.1139 65.8664 40.0955 65.8295 40.1139C65.7559 40.1508 65.7927 40.3119 65.7052 40.6848C65.6316 41.0577 65.4198 41.7022 64.9365 42.6136C64.7063 43.0786 64.384 43.5942 63.9881 44.1834C63.5968 44.7727 63.1134 45.4494 62.5058 46.1123L62.0224 46.5956C61.8613 46.7383 61.6633 46.8811 61.5391 46.9363H61.5206C61.447 46.9179 61.3227 46.8811 61.2168 46.8304C60.9866 46.7429 60.7334 46.6141 60.4848 46.4898C59.449 45.9557 58.3073 45.256 57.0737 44.4549C56.8251 44.2938 56.5028 44.3122 56.2681 44.4918L56.2496 44.5102C54.5877 45.7761 52.4471 46.9546 49.8046 47.6728C49.4824 47.7603 49.2522 48.0457 49.2338 48.3864V48.4048C49.1601 49.7997 49.0543 51.2774 48.8425 52.7966C48.7873 53.1695 48.7182 53.547 48.6261 53.8876C48.6077 53.9613 48.5709 54.0488 48.5525 54.1178L48.5156 54.2053V54.2237V54.2421L48.5341 54.2605L48.6077 54.3158L48.663 54.371C48.7873 54.4585 48.5018 54.2651 48.5387 54.2835H48.5202L48.5018 54.302C48.4834 54.3204 48.4282 54.3572 48.3775 54.3894C48.1474 54.5137 47.7883 54.6196 47.4154 54.6932C47.0425 54.7669 46.6282 54.8175 46.2185 54.836C45.3807 54.8912 44.506 54.8728 43.6313 54.7807C43.3827 54.7623 43.1295 54.7255 42.881 54.6932C42.7935 54.6564 42.7014 54.6058 42.614 54.5874C42.3654 54.4999 42.0984 54.4447 41.8452 54.3894C41.7393 54.371 41.6288 54.371 41.5229 54.3526C41.5045 54.3526 41.4861 54.3342 41.4677 54.3342C41.4493 54.3158 41.4124 54.3158 41.394 54.2973C41.3756 54.2421 41.3756 54.1915 41.3572 54.1178C41.3204 53.9199 41.3019 53.6897 41.2835 53.4549C41.2651 53.2569 41.2651 53.0452 41.2467 52.8472L42.9961 42.7056C43.0513 42.7056 43.1204 42.724 43.1756 42.724C43.4058 42.7424 43.6037 42.7424 43.7833 42.7424C44.1562 42.7424 44.4278 42.724 44.6211 42.6872C44.8191 42.6688 44.9065 42.632 44.9065 42.5997C44.9065 42.5629 44.8191 42.5261 44.6211 42.5123C44.4416 42.4754 44.1562 42.4386 43.8155 42.388C43.636 42.3511 43.4426 42.3143 43.2262 42.2821C43.171 42.2637 43.1204 42.2637 43.0651 42.2453L43.8707 37.6556C43.8707 37.6556 46.5685 36.8177 47.2083 36.5323C47.8528 36.2469 46.5822 31.5329 46.5822 31.5329C46.5822 31.5329 47.1346 30.2117 46.3842 29.3739C45.6339 28.536 41.7577 29.0884 41.7577 29.0884C41.7577 29.0884 39.3454 33.0521 38.9357 34.2306C38.5444 35.4091 40.5055 36.1595 40.3444 36.3574C40.3076 36.4127 39.9715 38.2863 39.525 40.9471C38.7194 40.5006 37.9183 39.9297 37.1496 39.161C36.5603 38.5533 35.9895 37.8398 35.5613 37.0204C35.3449 36.6106 35.1516 36.1825 34.9905 35.7175C34.8478 35.2526 34.7235 34.7876 34.6498 34.2905C34.5071 33.3099 34.5623 32.2742 34.8109 31.2705C35.0595 30.2532 35.5245 29.2864 36.1874 28.3979C37.4718 26.6302 39.4928 25.3274 41.7071 24.7197C43.9214 24.0936 46.3474 24.1673 48.4927 24.8808C50.6333 25.5944 52.53 26.9708 53.6716 28.7202C54.2608 29.5764 54.6337 30.5063 54.8317 31.4179C55.0296 32.3294 55.0619 33.204 54.956 34.0234C54.9007 34.4332 54.8133 34.8291 54.7258 35.2019C54.6199 35.5748 54.4956 35.9339 54.3345 36.2746C54.0307 36.9513 53.6578 37.5405 53.2619 38.0607C52.4563 39.0965 51.5494 39.8101 50.7069 40.3441C49.869 40.8781 49.0818 41.2187 48.4235 41.4673C47.7468 41.7159 47.1898 41.877 46.7294 41.9829C46.2645 42.0888 45.91 42.1809 45.6568 42.2499C45.1228 42.3742 44.9433 42.4985 44.9433 42.6228C44.9433 42.7471 45.1228 42.8714 45.6936 42.9451C45.979 42.9819 46.3703 43.0003 46.8721 42.9819C47.3877 42.9635 48.0138 42.876 48.7826 42.6781C49.5514 42.4801 50.4629 42.1625 51.4618 41.6239C52.4424 41.0714 53.5518 40.2842 54.5508 39.0874C55.0526 38.4981 55.5129 37.803 55.9088 36.9974C56.1067 36.6061 56.2679 36.1596 56.4106 35.7131C56.5349 35.2481 56.6592 34.7647 56.7328 34.2675C56.8755 33.2685 56.8571 32.159 56.6085 31.0542C56.4842 30.5018 56.3047 29.9309 56.0745 29.3739C55.8443 28.8215 55.5405 28.269 55.1998 27.7488C54.5047 26.6946 53.5932 25.7647 52.5574 25.0006C51.5032 24.2318 50.3247 23.6426 49.0772 23.2328C47.825 22.8415 46.5038 22.6067 45.1826 22.6067C43.8613 22.5883 42.5401 22.7679 41.2742 23.1408C38.7561 23.8911 36.4727 25.4425 35.0088 27.551C34.2768 28.6052 33.7566 29.7652 33.5081 30.9621C33.2595 32.159 33.2411 33.3744 33.4528 34.4976C33.5587 35.0685 33.7198 35.6025 33.8994 36.1227C34.0973 36.6383 34.3459 37.1217 34.6129 37.5682C35.1469 38.4797 35.8098 39.2302 36.505 39.87C37.4533 40.7262 38.4707 41.3339 39.4145 41.7621C39.1291 43.4562 38.8068 45.385 38.4846 47.3508C36.8595 46.8168 35.2529 46.0295 33.7522 44.9754C33.4852 44.7958 33.1445 44.759 32.8407 44.9017C32.3067 45.1687 31.7496 45.4357 31.1788 45.7073C30.6263 45.9743 30.0371 46.2229 29.4663 46.4393C29.2177 46.5268 28.9507 46.6188 28.7159 46.6879C28.6606 46.7063 28.61 46.7247 28.5548 46.7247L28.4811 46.7431H28.4259C28.4075 46.7431 28.3706 46.7615 28.389 46.7431C28.389 46.7615 28.389 46.6695 28.3706 46.9227L28.3522 46.9963C28.3522 46.9227 28.3338 47.1758 28.3706 46.8352V46.7615V46.7431H28.3522C28.2786 46.7247 28.0852 46.6004 27.9241 46.4577C27.7445 46.2966 27.565 46.117 27.4085 45.9053C26.7318 45.0858 26.1242 44.0639 25.6223 43.0465C25.3738 42.5309 25.1574 41.9923 24.9778 41.4767C24.8904 41.2281 24.8351 40.9611 24.7983 40.7447C24.7983 40.7079 24.7983 40.6573 24.7799 40.6204C24.9226 40.4777 25.139 40.3166 25.3691 40.1555C25.5993 39.9944 25.8525 39.8332 26.1011 39.6721C26.6029 39.3499 27.1369 39.046 27.6525 38.7422C28.0254 38.5258 28.1865 38.0793 28.0438 37.6696C27.542 36.2609 27.2566 34.7786 27.2382 33.2594C27.2198 31.7587 27.4545 30.2395 27.9149 28.7939C28.0392 28.4348 27.9149 28.0251 27.5742 27.8133C26.9482 27.3852 26.3405 26.9571 25.7697 26.5105C25.4843 26.2803 25.1989 26.0456 24.9825 25.8338C24.8766 25.7279 24.7661 25.6036 24.7339 25.5484L24.6418 25.4793L24.5314 25.5346C24.8352 25.3919 24.6188 25.4977 24.6925 25.4609L24.7109 25.4425C24.7109 25.4057 24.6925 25.3872 24.6925 25.3366C24.6741 25.1387 24.7477 24.8026 24.8352 24.4988C24.9226 24.1765 25.0515 23.8543 25.1943 23.5366C25.4797 22.8921 25.8388 22.2523 26.2301 21.6261C26.6214 21.0185 27.0495 20.4109 27.5144 19.8952C27.7446 19.6466 27.9978 19.3934 28.1911 19.2507C28.2095 19.2322 28.2279 19.2138 28.2464 19.2138C28.32 19.2322 28.4075 19.2691 28.5134 19.3013C28.8172 19.4072 29.1394 19.5683 29.4755 19.7294C29.7978 19.8905 30.1384 20.0701 30.4561 20.245C31.1006 20.6041 31.7589 20.9954 32.3849 21.3867C32.6519 21.5478 33.011 21.5478 33.278 21.3315C35.2621 19.8491 37.5455 18.795 39.9209 18.2057C40.2431 18.132 40.4917 17.8466 40.5101 17.4922V17.3494C40.8508 17.4369 41.2421 17.4922 41.6886 17.529C42.4942 17.5658 45.0447 17.529 48.7597 17.3863V17.4231V17.4415C48.7412 17.7453 48.9576 18.0124 49.2614 18.086C51.6737 18.6384 53.888 19.6558 55.78 20.9955C55.9595 21.1198 56.1897 21.1382 56.3876 21.0323C57.2071 20.6042 58.0311 20.1945 58.8505 19.8171C59.2602 19.6191 59.6699 19.4442 60.0658 19.2831C60.4571 19.1219 60.8714 18.9792 61.2443 18.8918C61.2995 18.8733 61.3317 18.8733 61.3686 18.8733L61.4238 18.8549H61.4606H61.5343C61.5527 18.8549 61.5711 18.8549 61.6079 18.8733C61.7138 18.9102 61.8749 18.9976 62.0177 19.1035C62.3031 19.3199 62.5885 19.6191 62.8371 19.923C63.3527 20.549 63.7854 21.2258 64.1767 21.9209C64.568 22.616 64.9086 23.3157 65.1572 24.0293C65.2815 24.3884 65.3874 24.7245 65.4427 25.0651C65.4795 25.2263 65.4795 25.3874 65.4611 25.4933C65.4611 25.5117 65.4427 25.5117 65.4427 25.5301C65.4058 25.5853 65.3552 25.636 65.3 25.6912C65.0698 25.9076 64.766 26.1193 64.4805 26.3173C64.1951 26.5152 63.8913 26.7086 63.5874 26.8881C62.9982 27.261 62.4089 27.6017 61.8197 27.9239H61.8013C61.6402 28.0114 61.5711 28.2094 61.6217 28.3889C62.2294 30.0508 62.4596 31.6759 62.4596 33.1397C62.4596 34.6036 62.2432 35.888 61.9578 36.979V36.9974C61.9394 37.0849 61.9762 37.1954 62.0453 37.246C63.3296 38.0654 64.2964 38.7283 64.9179 39.2301C65.2401 39.4787 65.4519 39.6767 65.5946 39.8194C65.7373 39.9621 65.7925 40.0496 65.811 40.0496C65.8294 40.0496 65.811 39.9253 65.6867 39.7457C65.5624 39.5662 65.3644 39.336 65.0606 39.0506C64.4897 38.5166 63.5966 37.7985 62.4181 36.9607C62.7404 35.888 63.0074 34.622 63.0442 33.1581C63.0995 31.731 62.9199 30.1244 62.3997 28.4625C62.9015 28.1955 63.4171 27.91 63.9373 27.6062C64.2412 27.4267 64.5634 27.2333 64.8672 27.0354C65.1895 26.819 65.4933 26.6256 65.8156 26.3402L66.0642 26.0916C66.101 26.0364 66.1516 25.9858 66.1885 25.9121C66.2069 25.8569 66.2437 25.8062 66.2437 25.751C66.2437 25.7326 66.2621 25.6957 66.2621 25.6773V25.6221C66.2989 25.3551 66.2805 25.1203 66.2437 24.9085C66.17 24.4804 66.0642 24.0891 65.9399 23.6933C65.6729 22.9245 65.3322 22.174 64.9409 21.4237C64.5496 20.6733 64.1031 19.9414 63.5322 19.2462C63.2468 18.8871 62.943 18.551 62.5517 18.2288C62.3537 18.0677 62.142 17.925 61.8381 17.8191C61.7645 17.7822 61.677 17.7638 61.5895 17.7454C61.5021 17.727 61.41 17.727 61.3409 17.727H61.2166L61.1108 17.7454C61.0371 17.7638 60.9681 17.7638 60.9128 17.7822C60.411 17.8881 59.9829 18.0492 59.5363 18.2104C59.1082 18.3715 58.6801 18.551 58.252 18.7444C57.52 19.0666 56.788 19.4211 56.0377 19.7802C54.5554 18.726 52.8613 17.8697 51.0566 17.2621C68.6281 16.5992 104.357 14.6887 110.999 13.3675C110.999 14.1362 110.944 14.9188 110.911 15.7429C110.875 16.7787 110.838 17.8144 110.824 18.8502C110.736 22.9934 110.7 27.1365 110.663 31.2799C110.626 35.4231 110.575 39.5478 110.483 43.6353C110.396 47.7233 110.285 51.779 110.124 55.7798C109.945 59.7619 109.733 63.6887 109.392 67.5096C109.213 69.4201 109.019 71.2753 108.748 73.0614C108.481 74.8476 108.177 76.5786 107.712 78.1667C107.482 78.9539 107.21 79.7181 106.874 80.3626C106.695 80.6664 106.515 80.915 106.303 81.1314C106.073 81.3478 105.788 81.5411 105.465 81.7022C104.839 82.0429 104.107 82.2915 103.394 82.4894C102.662 82.6874 101.93 82.8485 101.198 82.9912C99.7156 83.2582 98.2517 83.4194 96.8246 83.5437C95.3976 83.668 94.0027 83.7416 92.6446 83.7922C89.9285 83.8981 87.3966 83.9165 85.0027 83.8981C80.2334 83.8613 76.1087 83.7186 72.5412 83.5943C68.9689 83.4516 65.972 83.3273 63.4539 83.2352C60.9358 83.1293 58.8826 83.0557 57.2391 83.0189C56.4197 83.0005 55.7016 82.982 55.0616 82.9636H54.1685C53.9015 82.9636 53.6529 82.9636 53.4366 82.9452C52.5251 82.89 51.9359 82.8025 51.563 82.7657C51.1901 82.7288 51.029 82.7288 51.0106 82.8025C50.9922 82.8577 51.1165 82.9636 51.4755 83.1247C51.8346 83.2675 52.4239 83.4838 53.3676 83.6404C53.5978 83.6772 53.8694 83.714 54.1364 83.7462C54.4034 83.7646 54.7072 83.8015 55.0111 83.8337C55.6372 83.8889 56.3691 83.958 57.1701 84.0316C58.8135 84.1744 60.8483 84.3355 63.3664 84.515C65.8845 84.6946 68.8861 84.8879 72.4538 85.1043C76.0261 85.3022 80.1693 85.4956 84.9707 85.5692C87.3644 85.6061 89.9332 85.6061 92.6862 85.514C94.0627 85.4587 95.4714 85.3897 96.9353 85.2838C98.3992 85.1595 99.9183 84.9984 101.47 84.7314C102.257 84.5887 103.04 84.4276 103.845 84.1974C104.651 83.9672 105.47 83.6956 106.276 83.2675C106.686 83.0511 107.095 82.8025 107.473 82.4481C107.864 82.089 108.168 81.6424 108.421 81.2328C108.886 80.3949 109.171 79.5387 109.42 78.6594C109.922 76.9284 110.226 75.1423 110.511 73.3193C110.778 71.4779 110.994 69.6043 111.174 67.6754C111.533 63.8177 111.745 59.854 111.906 55.8538C112.067 51.8349 112.173 47.7838 112.247 43.6775C112.32 39.5712 112.353 35.4463 112.371 31.3032C112.408 27.16 112.408 23.0169 112.477 18.8924C112.495 17.8566 112.514 16.8392 112.55 15.8218C112.712 14.8366 112.78 13.7634 112.743 12.6908ZM7.9484 60.4568C8.5929 60.2405 9.26962 60.1714 9.91414 60.2589C10.2364 60.2957 10.5402 60.3832 10.8256 60.5075C11.0926 60.6318 11.3597 60.7929 11.5944 61.0092C12.0594 61.419 12.3816 61.9898 12.4691 62.5468C12.5243 62.8323 12.5059 63.0993 12.4507 63.3663C12.377 63.6333 12.2527 63.8819 12.0916 64.135C11.751 64.6 11.2354 64.9913 10.6646 65.1524C10.1121 65.332 9.46767 65.3135 8.86004 65.134C8.2524 64.9545 7.68153 64.6322 7.21661 64.2041C6.52148 63.578 6.01972 62.7585 5.67902 61.8471C5.84014 61.7044 6.00127 61.5433 6.1808 61.419C6.6964 61.0092 7.30391 60.6548 7.9484 60.4568ZM61.6764 47.2446L61.658 47.2078C61.6764 47.2262 61.6764 47.2446 61.6764 47.2446ZM18.6245 95.0612C18.5186 95.4341 18.3943 95.6873 18.2838 95.8669C18.0675 96.2075 17.9247 96.2398 17.8004 96.1891C17.6946 96.1339 17.6209 96.0096 17.6761 95.6551C17.713 95.2822 17.8925 94.6746 17.9063 93.5835C17.9063 93.0495 17.8511 92.4603 17.69 91.8894C17.5472 91.3186 17.3171 90.7846 17.0823 90.338C16.5989 89.4265 16.0465 88.8557 16.1201 88.7683C16.157 88.713 16.3503 88.8051 16.6357 88.9985C16.9212 89.1964 17.2802 89.5325 17.6163 89.9974C17.9569 90.444 18.2792 91.0332 18.491 91.6593C18.7073 92.2854 18.8132 92.9622 18.8132 93.5882C18.8408 94.2051 18.7304 94.6884 18.6245 95.0612ZM22.4454 94.472C22.427 94.7574 22.427 95.006 22.3902 95.2039C22.2659 96.0096 22.16 96.1845 22.0311 96.1845C21.9068 96.1661 21.8009 95.9681 21.7641 95.1855C21.7457 94.9876 21.7273 94.7574 21.7089 94.472C21.7089 94.3293 21.6904 94.1866 21.6904 94.0254C21.672 93.8643 21.6536 93.6848 21.6352 93.5098C21.6168 93.3303 21.5984 93.1369 21.58 92.9206C21.5431 92.7042 21.5247 92.4925 21.4925 92.2577C21.4741 92.0275 21.4188 91.7743 21.3682 91.5073C21.3129 91.2403 21.2807 90.9733 21.2071 90.6695C20.9585 89.5094 20.5994 88.2388 20.116 87.0603C19.6327 85.8634 19.0618 84.7401 18.491 83.7918C17.9201 82.8297 17.3309 82.0608 16.9396 81.4901C16.5115 80.9561 16.2629 80.6154 16.3135 80.5602C16.3504 80.5233 16.6864 80.7765 17.2066 81.2553C17.7084 81.7571 18.3851 82.4891 19.0296 83.4328C19.6925 84.3811 20.3509 85.5044 20.8848 86.7382C21.4188 87.9534 21.8332 89.2563 22.0817 90.4901C22.1554 90.7939 22.1876 91.0793 22.2429 91.3647C22.2981 91.6317 22.3303 91.8988 22.3487 92.1519C22.3671 92.4005 22.404 92.6353 22.4224 92.8471C22.4408 93.0634 22.4408 93.2752 22.4592 93.4732C22.4592 93.6711 22.4776 93.846 22.4776 94.0072C22.4638 94.1867 22.4454 94.3293 22.4454 94.472ZM44.8924 65.0459C46.1077 64.1344 47.3552 63.2229 48.5522 62.316C48.6949 62.2101 48.8561 62.0997 48.9988 61.9754C49.1415 61.8879 49.2658 61.7958 49.3901 61.7268C49.5144 61.6531 49.6203 61.6025 49.7123 61.5841C49.7998 61.5657 49.855 61.5657 49.8735 61.5657C49.9103 61.5657 49.9103 61.5657 49.9609 61.6025C49.9978 61.6393 50.0668 61.7084 50.1405 61.8188C50.2141 61.9247 50.2832 62.0674 50.3891 62.2101C50.4765 62.3713 50.5686 62.514 50.6561 62.6751C51.0151 63.2828 51.3512 63.872 51.655 64.4061C51.7977 64.6547 51.9036 64.8895 51.9773 65.0828C52.0509 65.2808 52.0509 65.4419 52.0509 65.5662C52.0509 66.0127 51.0888 66.7814 50.4995 67.3156C50.053 67.6884 49.6433 68.0107 49.2658 68.3145L49.2474 68.2961C49.2289 68.3145 49.2289 68.3513 49.2105 68.3698C49.1553 68.4066 49.1231 68.4434 49.0678 68.4756L48.9942 68.4941C48.9573 68.4756 48.9389 68.4756 48.9389 68.4756C48.9389 68.4756 48.9573 68.5125 48.9758 68.5309C48.3681 68.9774 47.8341 69.3365 47.406 69.6357C46.6556 70.1375 46.1722 70.4552 45.9053 70.6899C45.6383 70.9201 45.583 71.0628 45.6383 71.1917C45.6935 71.2976 45.8362 71.3713 46.1907 71.3344C46.5498 71.2792 47.139 71.1365 48.0137 70.7452C48.5477 70.515 49.1922 70.1743 49.961 69.7094C50.1037 70.0823 50.2464 70.6209 50.2096 71.1917C50.1727 71.7994 49.9241 72.3702 49.4408 72.8536C48.9758 73.3554 48.2991 73.7651 47.6362 74.1749C47.314 74.3728 46.9917 74.5477 46.7247 74.7273C46.4577 74.9068 46.223 75.0495 46.0296 75.1922C45.6199 75.4777 45.3529 75.7262 45.1734 75.9242C44.8005 76.3339 44.8143 76.5871 44.9432 76.7989C45.0675 77.0152 45.2838 77.1395 45.8179 77.0152C46.0849 76.96 46.4255 76.8357 46.8721 76.6239C47.1022 76.518 47.3554 76.3938 47.6224 76.251C47.9079 76.1083 48.2117 75.9288 48.5708 75.717C48.9299 75.5007 49.3027 75.2521 49.6618 74.9666C49.8229 74.8424 49.9841 74.6997 50.1452 74.5385V74.5569C50.2695 74.9298 50.3754 75.4684 50.3063 76.0577C50.2695 76.3615 50.2004 76.6653 50.0761 76.9507C49.9519 77.2546 49.7907 77.54 49.5744 77.807C49.1646 78.341 48.5938 78.806 48.023 79.165C47.4521 79.524 46.9319 79.7542 46.5223 79.9706C46.1125 80.1685 45.8087 80.3435 45.6108 80.4862C45.1826 80.79 45.1274 81.0386 45.201 81.2734C45.2747 81.5036 45.4496 81.6831 45.9883 81.6831C46.2553 81.6831 46.6328 81.6279 47.1115 81.4852C47.5949 81.3425 48.2164 81.1123 48.9667 80.6657C49.4133 80.3803 49.8598 80.0397 50.251 79.6115C50.3063 79.9706 50.3385 80.4171 50.3063 80.9511C50.251 81.6278 50.0393 82.4151 49.6296 83.2345C49.4132 83.6442 49.1462 84.0539 48.8424 84.4683C48.5385 84.878 48.1656 85.2739 47.7697 85.6651C47.36 86.038 46.9319 86.4155 46.4485 86.77C45.9651 87.1106 45.4495 87.4329 44.9109 87.7321C43.8199 88.3398 42.6276 88.8232 41.3754 89.2145C38.8757 90.0201 36.178 90.4482 33.6967 90.9454C32.4446 91.194 31.3214 91.461 30.3223 91.7511C29.3234 92.0365 28.4487 92.3403 27.6983 92.6441C27.2701 92.8237 26.8927 92.9848 26.5382 93.1597C26.2159 88.3721 24.4666 83.6581 21.502 79.8745C21.235 79.5338 20.9127 79.1241 20.5398 78.7512C20.5766 78.7144 20.6135 78.6637 20.6457 78.6269C20.9127 78.2678 21.1981 77.8765 21.4651 77.3931C21.7137 76.9282 21.9669 76.3942 22.1602 75.8049C22.3582 75.2156 22.5009 74.5711 22.57 73.8944C22.6068 73.5537 22.6252 73.1993 22.6252 72.8402C22.6252 72.4811 22.5884 72.1266 22.57 71.786C22.5147 71.0908 22.4457 70.3911 22.4963 69.7328C22.5331 69.0883 22.7265 68.4668 23.0303 67.8223C23.3342 67.1962 23.7439 66.5701 24.2088 65.9487C24.6738 65.3226 25.1387 64.6828 25.6175 64.0382C26.5796 62.7723 27.5832 61.5018 28.5821 60.2864C28.8307 59.9825 29.0839 59.6787 29.3325 59.3749C29.4568 59.2321 29.5811 59.0894 29.7054 58.9283C29.7929 58.8408 29.8849 58.7488 29.9724 58.6797C30.1704 58.537 30.4005 58.4495 30.6353 58.4127C30.8655 58.3943 31.1187 58.4127 31.3305 58.4864C31.3857 58.5048 31.4363 58.5232 31.4916 58.56C31.5468 58.5784 31.5975 58.6153 31.6343 58.6475L31.6711 58.6659L31.7264 58.7027L31.8322 58.7764C31.9059 58.8316 31.9749 58.8823 32.0486 58.9375C32.334 59.1539 32.6194 59.3472 32.8864 59.5452C33.1534 59.7431 33.4204 59.9181 33.6921 60.116C33.9591 60.2956 34.1386 60.4383 34.2261 60.5441C34.2629 60.5994 34.2997 60.65 34.3135 60.6869C34.332 60.7421 34.3504 60.7927 34.3688 60.8848C34.3872 61.0275 34.3688 61.2071 34.332 61.3866C34.2951 61.5661 34.2077 61.7457 34.134 61.9022C34.0465 62.0633 33.936 62.2428 33.8117 62.404C33.5632 62.7446 33.2777 63.0807 33.0245 63.4582C32.9002 63.6377 32.7759 63.8311 32.6655 64.029C32.6286 64.0843 32.6102 64.1349 32.5918 64.1717C32.5734 64.227 32.5366 64.2592 32.5182 64.3329C32.4629 64.4571 32.4307 64.5814 32.3939 64.6919C32.288 65.1385 32.288 65.4975 32.288 65.8152C32.3064 66.1374 32.3248 66.4228 32.3616 66.6899C32.4859 67.5829 32.6655 68.1538 32.8266 68.5313C31.8092 68.8351 30.9345 69.208 30.2532 69.6223C29.5212 70.0504 29.001 70.497 28.7156 70.8561C28.5729 71.0356 28.467 71.1783 28.3934 71.2842C28.3381 71.3901 28.3197 71.4453 28.3381 71.4822C28.444 71.5881 29.1253 70.8745 30.5708 70.2669C31.2843 69.9631 32.1958 69.6776 33.25 69.4797C34.3042 69.2633 35.5196 69.1206 36.8408 68.8904C37.5037 68.7661 38.1988 68.6234 38.894 68.4071C39.6075 68.1907 40.321 67.9053 41.0024 67.5508C42.3927 66.8695 43.6586 65.9574 44.8924 65.0459ZM33.6092 67.5087C33.8393 67.5824 34.18 67.633 34.5897 67.6699C34.9488 67.7067 35.3585 67.7435 35.7682 67.7573C35.8419 67.7573 35.9109 67.7573 35.9984 67.7758C35.1605 67.9737 34.3365 68.1486 33.5861 68.3466C33.6091 68.1348 33.6092 67.8678 33.6092 67.5087ZM40.3211 66.2612C39.7134 66.6018 39.1058 66.8873 38.4797 67.099C38.3186 67.1543 38.1574 67.2049 38.0147 67.2602C37.9088 67.1865 37.7984 67.1359 37.6741 67.0806C37.4945 67.007 37.3012 66.9747 37.0664 66.9379C36.85 66.9195 36.6199 66.9195 36.4219 66.9195C36.2055 66.9195 36.0122 66.9379 35.7958 66.9379C35.3861 66.9563 34.9764 66.9932 34.5989 67.0254C34.1892 67.0806 33.8486 67.1313 33.6184 67.1865C33.6184 67.0254 33.6184 66.8458 33.6368 66.6525C33.6368 66.4223 33.6552 66.1691 33.692 65.9021C33.7289 65.6351 33.7657 65.3497 33.8532 65.1333C33.8716 65.0597 33.89 65.0459 33.9084 64.9906C33.9084 64.9722 33.9452 64.9354 33.9636 64.9032C33.9821 64.8663 34.0005 64.8295 34.0189 64.8157C34.1064 64.6914 34.1984 64.5487 34.3043 64.4244C34.4286 64.2633 34.5897 64.0837 34.7509 63.8904C35.0179 63.872 35.3401 63.8167 35.6992 63.7845C36.1457 63.7293 36.6475 63.6786 37.1447 63.6786C37.6465 63.6602 38.1437 63.7154 38.5718 63.8029C39.4465 64.0009 39.893 64.2495 40.1784 64.3553C40.4639 64.4612 40.5882 64.4612 40.6802 64.3553C40.7171 64.3185 40.7539 64.2495 40.7355 64.1758C40.7171 64.0883 40.6802 63.9778 40.5559 63.8536C40.4316 63.7108 40.2521 63.5497 39.9667 63.3702C39.6813 63.2091 39.2716 63.0295 38.7514 62.9236C38.2358 62.8177 37.6466 62.7993 37.0895 62.85C36.5371 62.9052 35.9985 63.0295 35.5519 63.1722C35.446 63.209 35.3539 63.2459 35.2665 63.2597C35.3724 63.0986 35.4966 62.9374 35.6071 62.7441C35.7683 62.4771 35.8926 62.1917 35.98 61.851C36.0675 61.5104 36.1411 61.1375 36.0859 60.7278C36.0675 60.5114 36.0122 60.2996 35.9248 60.0833C35.8373 59.8669 35.7084 59.6551 35.5657 59.4756C35.5289 59.4203 35.4782 59.3697 35.4414 59.3329C35.69 59.2776 35.9754 59.227 36.2977 59.1902C36.7626 59.1349 37.2782 59.1027 37.7984 59.1165C38.314 59.1349 38.8526 59.1902 39.336 59.2961C40.2843 59.494 40.8183 59.7058 41.1405 59.761C41.4627 59.8347 41.587 59.7794 41.6561 59.6735C41.7113 59.5677 41.7113 59.425 41.4259 59.1902C41.3522 59.1349 41.2648 59.0843 41.1589 59.0106C41.053 58.937 40.9287 58.8679 40.7676 58.8127C40.4638 58.67 40.0541 58.5273 39.5154 58.4214C38.9814 58.3155 38.3922 58.2603 37.803 58.2971C37.2137 58.3339 36.6613 58.4398 36.1779 58.5825C35.7314 58.7068 35.3723 58.8863 35.1237 59.0291C34.981 58.9048 34.8383 58.8127 34.714 58.7252C34.4976 58.5825 34.3043 58.4214 34.0879 58.2603C34.1432 58.136 34.2122 57.9748 34.2859 57.8137C34.3733 57.6158 34.4838 57.3856 34.5897 57.2061C34.6956 57.0449 34.8567 56.847 35.0546 56.6905C35.4459 56.3682 35.9846 56.1196 36.606 55.9401C37.8029 55.6178 39.3037 55.5994 40.7676 55.7974C40.8228 55.8342 40.8919 55.8526 40.9471 55.871C41.0208 55.9079 41.0898 55.9263 41.1635 55.9447C41.4489 56.0322 41.6975 56.1058 41.9691 56.1611C42.0934 56.1795 42.2177 56.2163 42.3282 56.2347C42.3282 56.2347 42.3466 56.2347 42.3466 56.2531C42.4524 56.3268 42.5261 56.4143 42.6136 56.5201C42.9174 56.9114 43.0417 57.5743 43.0049 58.2326C43.0049 58.4122 42.9865 58.5917 42.968 58.7482C42.9496 58.8357 42.9496 58.9093 42.9312 58.9968C42.9128 59.0705 42.8944 59.1579 42.8944 59.2132L42.876 59.2684V59.3237C42.411 62.6106 42.3604 64.1251 42.5031 64.8249C41.7849 65.3313 41.0531 65.833 40.3211 66.2612ZM24.1261 40.261C24.1629 40.261 24.1813 40.2794 24.2135 40.2794C24.1813 40.2794 24.1445 40.261 24.1261 40.261ZM65.7279 25.567H65.6911C65.6726 25.567 65.6542 25.567 65.6358 25.5486H65.599C65.7141 25.567 65.8568 25.5854 65.7279 25.567ZM86.941 9.94235C85.1364 11.1945 82.6182 9.85489 82.6919 7.28153C82.7471 5.40794 85.6381 5.33428 86.3701 5.97869C87.1021 6.62318 86.6187 7.17558 86.6187 7.17558C86.6233 7.17558 88.3358 8.9801 86.941 9.94235ZM94.2467 9.94235C92.4422 11.1945 89.9056 9.85489 89.9977 7.28153C90.0529 5.40794 92.9439 5.33428 93.6759 5.97869C94.4078 6.62318 93.9245 7.17558 93.9245 7.17558C93.9245 7.17558 95.637 8.9801 94.2467 9.94235ZM101.566 9.94235C99.7618 11.1945 97.2436 9.85489 97.3172 7.28153C97.3725 5.40794 100.263 5.33428 100.995 5.97869C101.727 6.62318 101.244 7.17558 101.244 7.17558C101.244 7.17558 102.943 8.9801 101.566 9.94235Z" fill="#26C165"/>
<path d="M60.908 53.639C60.2635 53.6943 59.6052 53.7449 58.9608 53.7817L57.9802 53.8554L57.4969 53.8922C57.3173 53.9106 57.1378 53.929 56.9444 53.9659C56.5531 54.0395 56.0882 54.1638 55.6785 54.4677C55.2688 54.7531 54.9833 55.1628 54.8038 55.5587C54.6243 55.9684 54.5184 56.3643 54.4816 56.7372C54.4263 57.1101 54.4079 57.4876 54.4263 57.842C54.4263 58.2011 54.4631 58.5372 54.4816 58.8778L54.5552 59.8584C54.6104 60.5213 54.6427 61.1612 54.6979 61.8241C54.8959 64.4297 55.0892 67.0216 55.2872 69.5902C55.393 70.8746 55.4851 72.1636 55.5726 73.4296C55.6278 74.0741 55.6785 74.7324 55.8028 75.3953C55.9271 76.0582 56.1066 76.7349 56.4473 77.3932C56.6268 77.7155 56.8386 78.0562 57.1102 78.3232C57.3772 78.6086 57.6994 78.8387 58.0401 79.0183C58.7168 79.3774 59.4487 79.5017 60.1117 79.5523C60.4523 79.5707 60.7746 79.5891 61.0738 79.5891C61.3776 79.5891 61.6815 79.5891 62.0037 79.5707C62.6114 79.5707 63.219 79.5523 63.8267 79.5523C66.239 79.5155 68.5775 79.497 70.8425 79.4648C79.9114 79.3405 87.7517 79.2162 93.3213 79.0735C94.7162 79.0367 95.9637 78.9999 97.0732 78.9676C98.1642 78.9492 99.1447 78.8433 99.8951 78.5947C100.268 78.4705 100.59 78.3093 100.843 78.1482C101.092 77.9871 101.29 77.826 101.451 77.6832C101.525 77.6096 101.594 77.559 101.649 77.4853C101.704 77.4301 101.737 77.3794 101.773 77.3426C101.847 77.2551 101.861 77.2183 101.847 77.1999C101.829 77.1815 101.792 77.2183 101.704 77.2735C101.667 77.3104 101.617 77.3472 101.562 77.3794C101.506 77.4163 101.437 77.4669 101.345 77.5221C101.184 77.628 100.972 77.7523 100.719 77.8812C100.471 78.0055 100.167 78.1298 99.8076 78.2219C99.0941 78.4198 98.1826 78.452 97.0915 78.4198C96.0005 78.4014 94.7529 78.383 93.3397 78.3462C87.7693 78.2587 79.9106 78.2035 70.8609 78.1666C68.5913 78.1666 66.2527 78.1482 63.8451 78.1482H62.0221H61.1106C60.8067 78.1482 60.5213 78.1298 60.2543 78.1114C59.7019 78.0561 59.1817 77.9503 58.7536 77.7201C58.3439 77.4899 58.0217 77.1492 57.7915 76.7027C57.5613 76.2562 57.4186 75.7037 57.3265 75.1144C57.2206 74.5436 57.1838 73.9175 57.1286 73.2914C57.0411 72.0255 56.9674 70.7364 56.88 69.4521C56.7188 66.8787 56.5393 64.2731 56.3644 61.6675C56.3275 61.0046 56.2769 60.3646 56.2401 59.7017L56.1664 58.7212C56.148 58.3989 56.1296 58.0951 56.1296 57.7913C56.1296 57.202 56.1848 56.6128 56.3782 56.2399C56.4657 56.0419 56.5761 55.8992 56.7188 55.8117C56.8431 55.7243 57.0227 55.6506 57.2713 55.6138C57.3956 55.5954 57.5383 55.577 57.681 55.577L58.1644 55.5401L59.1449 55.4665C59.8078 55.4112 60.4478 55.379 61.1107 55.3238C62.4135 55.2363 63.7162 55.1442 65.0053 55.0568C70.1842 54.6839 75.2711 54.3248 80.1278 53.9657C85.003 53.6067 89.3579 53.289 93.2528 52.9852C93.7362 52.9484 94.215 52.9115 94.6984 52.8793C94.9286 52.8609 95.1633 52.8425 95.3935 52.8241C95.6237 52.8056 95.8769 52.7872 96.0564 52.7872C96.8252 52.7688 97.5571 52.9484 98.2154 53.289C98.8784 53.6297 99.4492 54.1084 99.9279 54.647C100.177 54.914 100.393 55.1994 100.591 55.5033C100.789 55.8071 100.982 56.0925 101.143 56.4148C101.788 57.6485 102.161 58.9513 102.322 60.1804C102.359 60.4843 102.395 60.7881 102.409 61.0919C102.428 61.3958 102.446 61.718 102.464 62.0034C102.501 62.6111 102.52 63.182 102.552 63.7528C102.626 65.9855 102.626 67.8776 102.589 69.4659C102.515 72.6285 102.303 74.5711 102.105 75.6991C101.926 76.8223 101.733 77.094 101.82 77.1998C101.838 77.2182 101.875 77.2182 101.944 77.1998C101.981 77.1814 102.018 77.163 102.05 77.1445C102.087 77.1077 102.124 77.0709 102.174 77.0202C102.354 76.8223 102.566 76.4494 102.782 75.8786C103.192 74.7369 103.602 72.7528 103.855 69.5395C103.979 67.9329 104.053 66.004 104.034 63.7344C104.034 63.1636 104.016 62.5743 103.997 61.9483C103.979 61.6445 103.979 61.3222 103.961 61C103.942 60.6593 103.905 60.3232 103.873 59.9826C103.694 58.6061 103.339 57.1238 102.589 55.6598C102.409 55.3008 102.198 54.9279 101.963 54.5688C101.733 54.2097 101.461 53.8737 101.176 53.533C100.586 52.8701 99.8727 52.2487 98.9796 51.7836C98.1049 51.3187 97.0691 51.0333 95.9966 51.0701C95.7112 51.0701 95.4948 51.0885 95.2646 51.1069C95.0345 51.1253 94.7997 51.1437 94.5695 51.1621C94.1045 51.199 93.6212 51.2358 93.124 51.268C89.2293 51.5535 84.8744 51.8573 79.9989 52.2164C75.1238 52.5754 70.0369 52.9483 64.8764 53.3396C63.5138 53.4409 62.2109 53.5285 60.908 53.639Z" fill="#26C165"/>
<path d="M70.5847 62.7077C70.3868 62.5466 70.1382 62.4775 69.8343 62.4775C69.4615 62.4775 68.9597 62.6939 68.3336 63.1036C67.2288 63.8356 66.4922 64.3189 66.1193 64.5307C65.7464 64.747 65.3506 64.922 64.9592 65.0463C64.2825 65.2764 63.9419 65.5803 63.9419 65.9762C63.9419 66.2984 64.2089 66.5286 64.7475 66.6713C65.2493 66.814 65.7464 67.1179 66.2298 67.546L67.1413 68.3838C67.5694 68.7245 67.9791 68.8994 68.3382 68.8994C68.7111 68.8994 69.0333 68.7935 69.3187 68.5956C69.6042 68.3792 69.7469 68.1675 69.7469 67.9189C69.7469 67.6887 69.641 67.5092 69.4062 67.348C68.5131 66.6345 67.887 66.1143 67.551 65.7966C69.3555 64.6918 70.3729 64.0473 70.5709 63.8678C70.7689 63.6883 70.8748 63.4949 70.8748 63.2785C70.8748 63.0299 70.7827 62.8504 70.5847 62.7077Z" fill="#26C165"/>
<path d="M83.8512 58.5085C83.621 58.3658 83.3678 58.3105 83.1376 58.3105C82.8706 58.3105 82.5484 58.4717 82.1571 58.7755C81.7842 59.0978 81.1949 59.8297 80.3893 60.9898C79.6758 62.0256 78.4604 63.4711 76.748 65.3631C74.2115 68.1114 72.9639 69.718 72.9639 70.2015C72.9639 70.3994 73.0698 70.5743 73.2677 70.7171C73.4841 70.8782 73.7327 70.9472 74.0549 70.9472C74.5383 70.9472 74.948 70.7493 75.2702 70.358C76.4487 68.8573 77.1254 67.9826 77.3418 67.7339C77.5581 67.4853 78.0369 66.9283 78.8057 66.0905C80.4308 64.3227 81.5909 62.9141 82.3228 61.8921C83.0548 60.8747 83.5381 60.198 83.8052 59.8942C84.0722 59.5903 84.1965 59.3233 84.1965 59.0885C84.2103 58.8307 84.0859 58.6374 83.8512 58.5085Z" fill="#26C165"/>
<path d="M92.5473 64.6547C91.5115 64.245 90.4205 63.4578 89.242 62.3345C89.0118 62.1181 88.7264 62.0122 88.3857 62.0122C88.0266 62.0122 87.709 62.1181 87.4236 62.316C87.1382 62.514 86.9955 62.7258 86.9955 62.9237C86.9955 63.4393 87.9254 64.3186 89.7622 65.5661C87.907 66.496 86.7423 67.0668 86.2451 67.3155C85.7433 67.5457 85.4947 67.8311 85.4947 68.1718C85.4947 68.3697 85.5822 68.5447 85.7801 68.7058C85.9781 68.8669 86.2267 68.9359 86.5305 68.9359C86.9771 68.9359 87.9761 68.5446 89.5136 67.7391C91.0649 66.9334 92.05 66.3994 92.4782 66.1324C92.9063 65.8654 93.1227 65.5984 93.1227 65.313C93.1549 65.046 92.9432 64.8342 92.5473 64.6547Z" fill="#26C165"/>
<path d="M76.6234 48.7957C85.3194 48.5794 93.9969 48.386 102.693 48.1697C103.407 48.1512 104.175 48.1144 104.691 47.6357C105.299 47.0648 105.335 46.1349 105.317 45.297C105.262 42.2633 105.23 39.2434 105.174 36.2097C105.101 32.1724 105.05 28.1397 104.976 24.1029C104.976 23.8866 104.921 23.6748 104.815 23.4768C104.599 23.104 104.244 22.8508 103.816 22.8139C95.7463 21.9209 87.6024 21.7413 79.4955 22.2615C77.7645 22.3674 75.8864 22.5653 74.5651 23.6886C72.7421 25.2262 72.5303 27.9008 72.4567 30.2762C72.314 35.2066 72.1712 40.1323 72.0285 45.0629C72.0101 45.8501 71.9917 46.6695 72.3692 47.3462C73.1564 48.7088 75.0489 48.8325 76.6234 48.7957ZM80.4074 27.7111C80.6376 27.4073 85.1215 30.5699 89.5684 33.9627C93.997 30.5883 98.4809 27.4073 98.7294 27.7111C98.9596 27.9965 95.0881 31.5137 90.9264 34.9985C91.732 35.6246 92.5147 36.2323 93.265 36.8399C98.4809 41.02 99.0332 41.9637 98.7294 42.3596C98.4256 42.7509 97.3714 42.4148 92.1418 38.2348C91.3224 37.5719 90.4477 36.8583 89.5684 36.1448C88.6938 36.8768 87.8191 37.5719 86.995 38.2348C81.7792 42.4148 80.7296 42.7325 80.4074 42.3596C80.1036 41.9683 80.656 41.02 85.8718 36.8399C86.6222 36.2507 87.4094 35.6247 88.2104 34.9985C84.0489 31.5137 80.1727 28.0103 80.4074 27.7111Z" fill="#26C165"/>
</svg>
